<?xml version="1.0" encoding="utf-8"?>
<!-- Generator: Adobe Illustrator 25.0.0, SVG Export Plug-In . SVG Version: 6.00 Build 0)  -->
<svg version="1.1" id="katman_1" xmlns="http://www.w3.org/2000/svg" xmlns:xlink="http://www.w3.org/1999/xlink" x="0px" y="0px"
	 viewBox="0 0 200 56.39" style="enable-background:new 0 0 200 56.39;" xml:space="preserve">
<style type="text/css">
	.st0{fill:url(#SVGID_1_);}
	.st1{fill:url(#SVGID_2_);}
	.st2{fill:#3F4041;}
	.st3{fill:#EB5B26;}
</style>
<g>
	<linearGradient id="SVGID_1_" gradientUnits="userSpaceOnUse" x1="-9.094947e-13" y1="28.1942" x2="44.3299" y2="28.1942">
		<stop  offset="0.4" style="stop-color:#EC6624"/>
		<stop  offset="0.8" style="stop-color:#F9AF1B"/>
	</linearGradient>
	<path class="st0" d="M1.9,0.27c0,0,28.38-3.68,39.48,16.34c3.94,7.1,4.01,15.84-0.24,22.76c-4.28,6.97-13.16,14.86-31.58,16.99
		c0,0-9.37,0.96-9.37-7.88c0-8.11,4.08-19.45,4.12-19.61c0.55-1.98,3.6-14.07-1.57-20.51C-2.89,1.33,1.9,0.27,1.9,0.27z"/>
	<linearGradient id="SVGID_2_" gradientUnits="userSpaceOnUse" x1="-10.2466" y1="39.2624" x2="26.8926" y2="8.0989">
		<stop  offset="0.25" style="stop-color:#FCDF37"/>
		<stop  offset="0.75" style="stop-color:#E6342A"/>
	</linearGradient>
	<path class="st1" d="M2.75,8.35c5.17,6.44,2.12,18.54,1.57,20.51c-0.05,0.17-4.12,11.5-4.12,19.61c0,4.41,2.33,6.37,4.66,7.24
		c-0.93-2.22,1.33-4.75,2.32-6.01c0.35-0.45,8.02-9.19,15.37-17.25c9.42-10.34,8.46-16.44,8.46-16.44
		C30.28,5.33,13.02,1.36,4.66,0.06C2.92,0.13,1.9,0.27,1.9,0.27S-2.89,1.33,2.75,8.35z"/>
	<path class="st2" d="M9.38,35.54c5.62-10.13,5.43-18,5.43-18c0-7.86-7.2-14.17-11.76-17.38C2.31,0.21,1.9,0.27,1.9,0.27
		s-4.79,1.06,0.85,8.09c5.17,6.44,2.12,18.54,1.57,20.51c-0.05,0.17-4.12,11.5-4.12,19.61c0,3.13,1.19,5.02,2.71,6.17
		c-2.9-2.9,0.52-6.8,3.32-12.79C7.28,39.59,8.26,37.55,9.38,35.54z"/>
</g>
<g>
	<path class="st3" d="M157.34,46.5c0.19-0.48,0.38-0.58,0.9-0.58c1,0.01,2.01,0,3.01,0c0.62,0,1.24,0.02,1.87,0.02
		c1.07,0,2.14-0.02,3.21-0.02c0.5,0,0.75,0.25,0.75,0.74c0,0.28,0,0.57,0,0.85c0,0.42-0.25,0.67-0.67,0.68c-0.18,0.01-0.36,0-0.54,0
		c-1.69,0-3.39,0-5.08,0c-0.4,0-0.52,0.12-0.52,0.52c0,0.2,0,0.4,0,0.6c0.01,0.27,0.15,0.41,0.42,0.41c0.7,0,1.39,0,2.09,0
		c0.57,0,1.14,0.01,1.7,0.03c0.3,0.01,0.55,0.22,0.57,0.53c0.02,0.32,0.02,0.65,0,0.98c-0.02,0.34-0.28,0.56-0.62,0.56
		c-1.05,0-2.1-0.01-3.16-0.01c-0.21,0-0.42,0-0.63,0.01c-0.24,0.01-0.37,0.16-0.37,0.42c0,0.43,0,0.86,0,1.29c0,0.54,0,1.08,0,1.62
		c0,0.49-0.25,0.73-0.74,0.74c-0.49,0-0.98,0.01-1.47,0.02c-0.4,0.01-0.67-0.25-0.68-0.66c0-0.99,0-1.98,0-2.98
		c0-0.11-0.02-0.23-0.03-0.34c0-0.52,0-1.04,0-1.56c0-0.34,0-0.68,0-1.02C157.34,48.41,157.34,47.46,157.34,46.5z"/>
	<path class="st3" d="M157.34,49.37c0,0.34,0,0.68,0,1.02C157.34,50.05,157.34,49.71,157.34,49.37z"/>
	<path class="st3" d="M178.44,50.89c0-0.57,0-1.15,0-1.72c0.01-0.87,0.01-1.74,0.03-2.61c0.01-0.38,0.27-0.63,0.65-0.63
		c1.9,0,3.8,0,5.7,0c0.8,0,1.6,0.02,2.39,0.02c0.5,0,0.73,0.24,0.73,0.74c0,0.28,0,0.56,0,0.83c-0.01,0.41-0.3,0.69-0.71,0.68
		c-0.99,0-1.98,0-2.97,0c-0.62,0-1.24-0.02-1.87-0.02c-0.24,0-0.48,0.01-0.73,0.03c-0.19,0.01-0.33,0.12-0.34,0.31
		c-0.02,0.3-0.03,0.6-0.02,0.91c0.01,0.19,0.18,0.31,0.4,0.31c0.48,0,0.96,0,1.43,0c0.59,0,1.19,0,1.78,0
		c0.45,0,0.68,0.23,0.69,0.68c0.01,0.25,0.01,0.51,0.01,0.76c0,0.35-0.21,0.61-0.57,0.63c-0.6,0.03-1.21,0.02-1.81,0.03
		c-0.5,0-1-0.01-1.51-0.01c-0.27,0-0.41,0.12-0.42,0.39c-0.02,0.34-0.02,0.68-0.01,1.02c0,0.2,0.15,0.34,0.35,0.35
		c0.07,0.01,0.13,0,0.2,0c1.77,0,3.53,0,5.3,0c0.55,0,0.8,0.25,0.8,0.8c0,0.29,0,0.58,0,0.87c-0.01,0.41-0.28,0.67-0.68,0.67
		c-0.57,0-1.15,0.01-1.72,0c-0.92,0-1.84-0.02-2.76-0.02c-1.22,0-2.43,0-3.65,0c-0.43,0-0.69-0.25-0.7-0.68c0-1.37,0-2.73,0-4.1
		c0-0.08,0.01-0.16,0.01-0.24C178.45,50.89,178.45,50.89,178.44,50.89z"/>
	<path class="st3" d="M198.63,55.9c-0.31,0-0.63,0-0.94,0c-0.42,0-0.74-0.17-0.99-0.52c-0.52-0.73-1.07-1.44-1.62-2.16
		c-0.13-0.17-0.25-0.17-0.38,0c-0.56,0.7-1.13,1.39-1.66,2.1c-0.28,0.38-0.6,0.59-1.07,0.59c-0.63-0.01-1.27,0-1.9,0
		c-0.22,0-0.37-0.11-0.46-0.3c-0.09-0.18-0.06-0.36,0.06-0.51c0.54-0.66,1.08-1.32,1.61-1.99c0.43-0.54,0.85-1.09,1.28-1.64
		c0.11-0.14,0.22-0.27,0.33-0.41c0.19-0.22,0.2-0.34,0.01-0.57c-0.82-1.02-1.63-2.04-2.45-3.06c-0.17-0.21-0.33-0.41-0.51-0.62
		c-0.15-0.17-0.23-0.36-0.13-0.58c0.1-0.22,0.29-0.31,0.53-0.31c0.62,0,1.25,0,1.87,0c0.39,0,0.69,0.16,0.94,0.47
		c0.5,0.63,1,1.26,1.5,1.89c0.17,0.21,0.3,0.2,0.47,0c0.52-0.65,1.03-1.29,1.55-1.94c0.21-0.27,0.5-0.4,0.83-0.41
		c0.65-0.01,1.29,0,1.94,0c0.33,0,0.54,0.21,0.53,0.51c-0.01,0.08-0.04,0.18-0.09,0.25c-0.77,0.98-1.54,1.95-2.32,2.93
		c-0.24,0.31-0.49,0.62-0.73,0.93c-0.13,0.17-0.13,0.3,0.01,0.47c0.76,0.96,1.51,1.92,2.27,2.88c0.31,0.39,0.62,0.77,0.94,1.15
		c0.15,0.19,0.21,0.39,0.09,0.62c-0.12,0.22-0.32,0.26-0.55,0.26c-0.32-0.01-0.64,0-0.96,0C198.63,55.91,198.63,55.91,198.63,55.9z"
		/>
	<path class="st3" d="M176.92,54.13c-0.02-0.29-0.23-0.48-0.51-0.52c-0.13-0.02-0.27-0.02-0.4-0.02c-0.56,0-1.12,0-1.67,0v0
		c-0.76,0-1.51,0-2.27,0c-0.16,0-0.32,0-0.4-0.15c-0.07-0.11-0.11-0.26-0.11-0.39c0-1.3,0.01-2.6,0.02-3.9c0-0.85,0-1.7,0-2.56
		c0-0.39-0.3-0.68-0.7-0.68c-0.47,0-0.93,0-1.4,0c-0.5,0-0.73,0.23-0.74,0.73c-0.01,0.8-0.02,1.6-0.02,2.39c0,0.62,0,1.25,0,1.87
		c0.01,0,0.01,0,0.02,0c0,0.12,0,0.24,0,0.36c0,1.34,0,2.67,0.01,4.01c0,0.37,0.27,0.62,0.64,0.62c1.52,0.01,3.04,0.02,4.55,0.02
		c0.13,0,0.27,0,0.4,0v0c0.64,0,1.28,0,1.92,0c0.35,0,0.64-0.21,0.66-0.56C176.95,54.95,176.94,54.54,176.92,54.13z"/>
</g>
<g>
	<g>
		<path class="st2" d="M62.85,31.56v8.46c0,1.01-0.81,1.85-1.85,1.85h-3.71c-1.01,0-1.85-0.85-1.85-1.85V15.52
			c0-1.05,0.81-1.85,1.81-1.85h16.24c5.88,0,10.28,3.39,10.28,8.95c0,4.35-3.35,6.37-7.42,7.17c1.65,0.6,2.86,2.02,4.47,4.55
			l3.59,5.68c0.64,1.05,0.36,1.85-0.69,1.85h-4.72c-1.01,0-2.38-0.81-3.02-1.85l-3.35-5.24c-1.01-1.57-2.46-3.22-5-3.22H62.85z
			 M62.85,19.22V26h8.38c2.26,0,5.12-0.81,5.12-3.39s-2.86-3.39-5.12-3.39H62.85z"/>
		<path class="st2" d="M125.48,13.66c1.05,0,1.85,0.81,1.85,1.85v1.85c0,1.05-0.81,1.85-1.85,1.85h-8.79v20.84
			c0,1.01-0.85,1.81-1.85,1.81h-3.71c-1.01,0-1.85-0.81-1.85-1.81V19.22h-8.79c-1.05,0-1.85-0.81-1.85-1.85v-1.85
			c0-1.05,0.81-1.85,1.85-1.85H125.48z"/>
		<path class="st2" d="M147.17,41.88c-1.01,0-2.06-0.81-2.42-1.77l-6.93-19.35v19.23c0,1.05-0.81,1.89-1.85,1.89h-3.55
			c-1.05,0-1.85-0.85-1.85-1.89V15.56c0-1.05,0.81-1.89,1.81-1.89h8.02c1.05,0,2.06,0.85,2.38,1.85l5.8,16.81l5.8-16.81
			c0.32-1.01,1.33-1.85,2.38-1.85h8.02c1.01,0,1.81,0.85,1.81,1.89v24.43c0,1.05-0.81,1.89-1.85,1.89h-3.55
			c-1.05,0-1.85-0.85-1.85-1.89V20.76l-6.93,19.35c-0.36,0.97-1.41,1.77-2.42,1.77H147.17z"/>
		<path class="st2" d="M174.86,21.32c1.65-6.25,7.34-7.66,13.06-7.66h10.6c0.97,0,1.69,0.85,1.69,1.81v24.59
			c0,1.01-0.85,1.81-1.85,1.81h-3.71c-1.05,0-1.85-0.81-1.85-1.85v-4.96h-13.99l-1.33,4.96c-0.28,1.05-1.29,1.85-2.34,1.85h-3.87
			c-1.05,0-1.65-0.81-1.37-1.81L174.86,21.32z M180.26,29.5h12.54V19.22h-5.6c-2.54,0-4.55,1.53-5.2,3.95L180.26,29.5z"/>
	</g>
	<g>
		<path class="st2" d="M87.73,25.77v14.3c0,1.01,1.12,1.98,2.13,1.98h3.67c1.05,0,1.85-1.01,1.85-2.02V21.38L87.73,25.77z"/>
		<path class="st3" d="M95.37,16.53v-1.01c0-1.05-0.8-2.05-1.85-2.05h-3.67c-1.01,0-1.84,1-1.84,2.05v5.4L95.37,16.53z"/>
	</g>
</g>
</svg>
