<?xml version="1.0" encoding="utf-8"?>
<!-- Generator: Adobe Illustrator 25.0.0, SVG Export Plug-In . SVG Version: 6.00 Build 0)  -->
<svg version="1.1" id="katman_1" xmlns="http://www.w3.org/2000/svg" xmlns:xlink="http://www.w3.org/1999/xlink" x="0px" y="0px"
	 viewBox="0 0 339.68 60.21" style="enable-background:new 0 0 339.68 60.21;" xml:space="preserve">
<style type="text/css">
	.st0{fill:#001737;}
	.st1{fill:#0168FA;}
</style>
<g>
	<g>
		<path class="st0" d="M232.51,13.57l-4.68-0.58c-4.5,0-7.43,0.6-8.78,1.81c-1.36,1.21-2.03,3.71-2.03,7.51v0.54h12.27
			c0.61,0,1.11,0.2,1.5,0.59c0.4,0.4,0.59,0.9,0.59,1.5v4.04c0,0.61-0.2,1.11-0.59,1.49c-0.4,0.38-0.9,0.58-1.5,0.58h-12.27v21.14
			c0,0.61-0.2,1.11-0.59,1.49c-0.4,0.38-0.89,0.58-1.47,0.58h-7.6c-0.61,0-1.11-0.19-1.49-0.58c-0.38-0.38-0.58-0.88-0.58-1.49
			V22.32c0-6.31,1.44-10.78,4.3-13.42c2.86-2.63,7.91-3.95,15.13-3.95c3.71,0,6.3,0.13,7.76,0.41c1.47,0.27,2.39,0.6,2.78,1
			c0.38,0.4,0.58,0.86,0.58,1.37v3.73c0,0.61-0.2,1.11-0.59,1.5c-0.4,0.4-0.89,0.59-1.47,0.59h-1.26L232.51,13.57L232.51,13.57z"/>
		<path class="st0" d="M238.62,52.19V7.73c0-0.61,0.2-1.11,0.59-1.5c0.4-0.4,0.89-0.59,1.47-0.59h7.6c0.59,0,1.08,0.2,1.47,0.59
			c0.4,0.4,0.59,0.9,0.59,1.5V52.2c0,0.59-0.2,1.08-0.59,1.47c-0.4,0.4-0.89,0.59-1.47,0.59h-7.6c-0.59,0-1.08-0.2-1.47-0.59
			C238.81,53.28,238.62,52.79,238.62,52.19z"/>
		<path class="st0" d="M261.82,50c-3.48-3.3-5.23-8.06-5.23-14.26s1.76-10.98,5.26-14.32s8.37-5.01,14.58-5.01
			s11.07,1.62,14.55,4.86c3.48,3.25,5.23,7.89,5.23,13.95v1.93c0,0.61-0.2,1.11-0.59,1.5c-0.4,0.4-0.9,0.59-1.5,0.59h-25.54
			c0.23,2.78,1.02,4.81,2.39,6.07c1.37,1.26,3.56,1.9,6.57,1.9s5.06-0.68,6.17-2.03c1.11-1.36,2.48-2.04,4.11-2.06h5.05
			c0.61,0,1.11,0.2,1.5,0.59c0.4,0.4,0.59,0.9,0.59,1.5c0,6.49-6.18,9.73-18.56,9.71C270.16,54.95,265.3,53.29,261.82,50z
			 M268.5,32.12h15.78c-0.23-5.34-2.84-8-7.85-8C271.41,24.11,268.77,26.79,268.5,32.12z"/>
	</g>
</g>
<path class="st1" d="M330.73,31.15l7.84-11.07c0.72-0.96,0.77-1.79,0.13-2.51c-0.27-0.32-0.66-0.47-1.15-0.47h-7.36
	c-2.2,0-3.95,1-5.29,2.99l-1.23,1.88L330.73,31.15z"/>
<path class="st0" d="M327.55,35.65l1.09-1.54l-6.99-9.09l-2.37,3.6l-5.63-8.55c-1.34-1.99-3.1-2.99-5.29-2.99H301
	c-0.49,0-0.88,0.15-1.15,0.47c-0.64,0.72-0.59,1.56,0.13,2.51L311,35.63l-11.8,15.65c-0.36,0.41-0.54,0.78-0.54,1.1
	c0,0.33,0.04,0.6,0.13,0.83c0.18,0.7,0.67,1.05,1.46,1.05h7.22c2.08,0,3.83-1,5.26-2.99l6.54-8.82l6.51,8.82
	c1.45,1.99,3.21,2.99,5.29,2.99h7.22c0.79,0,1.27-0.35,1.46-1.05c0.09-0.18,0.13-0.45,0.13-0.8s-0.18-0.72-0.54-1.13L327.55,35.65z"
	/>
<g>
	<g>
		<path class="st1" d="M10.3,40.69v11.52c0,1.37-1.1,2.53-2.53,2.53H2.74c-1.38-0.01-2.53-1.16-2.53-2.53V18.85
			c0-1.43,1.1-2.53,2.47-2.53h22.1c8,0,13.99,4.61,13.99,12.18c0,5.92-4.55,8.67-10.09,9.76c2.25,0.82,3.89,2.74,6.08,6.2l4.89,7.73
			c0.88,1.43,0.49,2.53-0.93,2.53H32.3c-1.37,0-3.24-1.1-4.11-2.53l-4.55-7.13c-1.37-2.14-3.35-4.39-6.8-4.39
			C16.84,40.69,10.3,40.69,10.3,40.69z M10.3,23.9v9.21h11.41c3.07,0,6.96-1.1,6.96-4.61s-3.89-4.61-6.96-4.61
			C21.71,23.9,10.3,23.9,10.3,23.9z"/>
		<path class="st1" d="M95.53,16.34c1.43,0,2.53,1.1,2.53,2.53v2.53c0,1.43-1.1,2.53-2.53,2.53H83.58v28.36
			c0,1.37-1.15,2.47-2.53,2.47H76c-1.37,0-2.53-1.1-2.53-2.47V23.9H61.51c-1.43,0-2.53-1.1-2.53-2.53v-2.52
			c0-1.43,1.1-2.53,2.53-2.53C61.52,16.34,95.53,16.34,95.53,16.34z"/>
		<path class="st1" d="M125.03,54.72c-1.37,0-2.8-1.1-3.29-2.42l-9.43-26.33v26.16c0,1.43-1.1,2.58-2.53,2.58h-4.83
			c-1.43,0-2.53-1.15-2.53-2.58V18.9c0-1.43,1.1-2.58,2.47-2.58h10.91c1.43,0,2.8,1.15,3.24,2.53l7.89,22.87l7.89-22.87
			c0.44-1.37,1.81-2.53,3.24-2.53h10.91c1.37,0,2.47,1.15,2.47,2.58v33.23c0,1.43-1.1,2.58-2.53,2.58h-4.83
			c-1.43,0-2.53-1.15-2.53-2.58V25.99l-9.43,26.33c-0.49,1.32-1.92,2.42-3.28,2.42L125.03,54.72L125.03,54.72z"/>
		<path class="st1" d="M162.72,26.76c2.25-8.5,9.98-10.42,17.78-10.42h14.43c1.32,0,2.29,1.15,2.29,2.47v33.45
			c0,1.37-1.15,2.47-2.53,2.47h-5.05c-1.43,0-2.53-1.1-2.53-2.53v-6.74h-19.03l-1.81,6.74c-0.38,1.43-1.76,2.53-3.18,2.53h-5.27
			c-1.43,0-2.25-1.1-1.87-2.47L162.72,26.76z M170.06,37.89h17.05V23.9h-7.62c-3.46,0-6.2,2.09-7.08,5.37L170.06,37.89z"/>
	</g>
</g>
<path class="st1" d="M44.15,32.8v19.46c0,1.37,1.53,2.69,2.9,2.69h5c1.43,0,2.51-1.38,2.51-2.74V26.83L44.15,32.8z"/>
<path class="st0" d="M54.55,20.23v-1.38c0-1.43-1.09-2.79-2.51-2.79h-5c-1.37,0-2.5,1.36-2.5,2.79v7.36L54.55,20.23z"/>
</svg>
