<?xml version="1.0" standalone="no"?>
<!DOCTYPE svg PUBLIC "-//W3C//DTD SVG 1.1//EN" "http://www.w3.org/Graphics/SVG/1.1/DTD/svg11.dtd" >
<svg>
<metadata>
Created by FontForge 20120731 at Fri Aug 21 00:51:37 2020
 By www
Copyright (c) Font Awesome
</metadata>
<defs>
<font id="FontAwesome5Duotone-Solid" horiz-adv-x="496" >
  <font-face 
    font-family="Font Awesome 5 Duotone Solid"
    font-weight="900"
    font-stretch="normal"
    units-per-em="512"
    panose-1="2 0 5 3 0 0 0 0 0 0"
    ascent="448"
    descent="-64"
    bbox="-1.02222 -64.4138 641 448.462"
    underline-thickness="25"
    underline-position="-25"
    unicode-range="U+F00D-10F8EE"
  />
<missing-glyph horiz-adv-x="512" 
 />
    <glyph glyph-name=".notdef" horiz-adv-x="512" 
 />
    <glyph glyph-name=".null" horiz-adv-x="0" 
 />
    <glyph glyph-name="nonmarkingreturn" horiz-adv-x="170" 
 />
    <glyph glyph-name="times-primary" unicode="&#xf00d;" horiz-adv-x="352" 
d="M343 92q9 -9 9 -22t-9 -23l-22 -22q-10 -9 -23 -9t-22 9l-267 267q-9 9 -9 22t9 23l22 22q10 9 23 9t22 -9z" />
    <glyph glyph-name="step-backward-primary" unicode="&#xf048;" horiz-adv-x="448" 
d="M384 384v-384q0 -20 -18.5 -29t-33.5 4l-188 175v84l188 175q15 13 33.5 4t18.5 -29z" />
    <glyph glyph-name="step-forward-primary" unicode="&#xf051;" horiz-adv-x="448" 
d="M64 0v384q0 20 18.5 29t33.5 -4l188 -175v-84l-188 -175q-15 -13 -33.5 -4t-18.5 29z" />
    <glyph glyph-name="globe-primary" unicode="&#xf0ac;" 
d="M376 192q0 -32 -3 -64h115q-5 -16 -11 -32h-109q-15 -91 -52 -143q-33 -9 -68 -9q14 0 28 13q18 17 33 50q16 35 26 82q0 4 1 7h-176q1 -3 1 -7q9 -46 26 -82q15 -33 33 -50q15 -13 28 -13q-35 0 -68 9q-37 52 -52 143h-109q-6 16 -11 32h115q-3 32 -3 64t3 64h-115
q5 16 11 32h109q15 91 52 143q33 9 68 9q-14 0 -28 -13q-18 -17 -33 -50q-16 -35 -26 -82q0 -4 -1 -7h176q-1 3 -1 7q-9 46 -26 82q-15 33 -33 50q-15 13 -28 13q35 0 68 -9q37 -52 52 -143h109q6 -16 11 -32h-115q3 -32 3 -64zM340 128q4 32 4 64v0q0 32 -4 64h-184
q-4 -32 -4 -64t4 -64h184z" />
    <glyph glyph-name="filter-primary" unicode="&#xf0b0;" horiz-adv-x="512" 
 />
    <glyph glyph-name="smile-primary" unicode="&#xf118;" 
d="M328 272q13 0 22.5 -9.5t9.5 -22.5t-9.5 -22.5t-22.5 -9.5t-22.5 9.5t-9.5 22.5t9.5 22.5t22.5 9.5zM168 272q13 0 22.5 -9.5t9.5 -22.5t-9.5 -22.5t-22.5 -9.5t-22.5 9.5t-9.5 22.5t9.5 22.5t22.5 9.5z" />
    <glyph glyph-name="frown-primary" unicode="&#xf119;" 
d="M168 272q13 0 22.5 -9.5t9.5 -22.5t-9.5 -22.5t-22.5 -9.5t-22.5 9.5t-9.5 22.5t9.5 22.5t22.5 9.5zM328 272q13 0 22.5 -9.5t9.5 -22.5t-9.5 -22.5t-22.5 -9.5t-22.5 9.5t-9.5 22.5t9.5 22.5t22.5 9.5z" />
    <glyph glyph-name="meh-primary" unicode="&#xf11a;" 
d="M328 272q13 0 22.5 -9.5t9.5 -22.5t-9.5 -22.5t-22.5 -9.5t-22.5 9.5t-9.5 22.5t9.5 22.5t22.5 9.5zM168 272q13 0 22.5 -9.5t9.5 -22.5t-9.5 -22.5t-22.5 -9.5t-22.5 9.5t-9.5 22.5t9.5 22.5t22.5 9.5z" />
    <glyph glyph-name="level-up-primary" unicode="&#xf148;" horiz-adv-x="352" 
d="M345 269l-22 -22q-7 -7 -17 -7t-17 7l-1 1l-96 104l-96 -104l-1 -1q-7 -7 -17 -7t-17 7l-22 22q-7 7 -7 17t7 17l136 138q7 7 17 7t17 -7l136 -138q7 -7 7 -17t-7 -17z" />
    <glyph glyph-name="compass-primary" unicode="&#xf14e;" 
d="M348 318q12 6 22 -4t4 -22l-66 -144q-5 -11 -16 -16l-144 -66q-12 -6 -22 4t-4 22l66 144q5 11 16 16zM270.5 169.5q9.5 9.5 9.5 22.5t-9.5 22.5t-22.5 9.5t-22.5 -9.5t-9.5 -22.5t9.5 -22.5t22.5 -9.5t22.5 9.5z" />
    <glyph glyph-name="dollar-sign-primary" unicode="&#xf155;" horiz-adv-x="288" 
d="M282 73q-12 -33 -41 -52.5t-65 -20.5h-64q-20 0 -45.5 9t-41.5 21q-5 5 -6 12t5 12l34 34q5 5 11 5q5 0 9 -3q15 -10 34 -10h66h1q12 0 20.5 8.5t8.5 20.5q0 10 -6 18t-15 11l-103 30q-34 10 -57 36t-27 60v10q0 42 29 74t71 36h9h67q20 0 45.5 -9t41.5 -21q5 -5 6 -12
t-5 -12l-34 -34q-5 -5 -11 -5q-5 0 -9 3q-15 10 -34 10h-67q-12 0 -20.5 -8.5t-8.5 -20.5q0 -10 6 -18t15 -11l108 -31q44 -13 66.5 -55t6.5 -87z" />
    <glyph glyph-name="moon-primary" unicode="&#xf186;" horiz-adv-x="512" 
d="M32 192q0 106 73.5 181t177.5 75q23 0 45 -4q9 -2 10 -10t-6 -13q-30 -17 -52.5 -44t-34.5 -60.5t-12 -69.5q0 -94 71 -154.5t162 -42.5q8 2 12.5 -5.5t-1.5 -13.5q-35 -45 -86 -70t-108 -25q-104 0 -177.5 75t-73.5 181z" />
    <glyph glyph-name="university-primary" unicode="&#xf19c;" horiz-adv-x="512" 
d="M491 327q5 -2 5 -7v-16q0 -8 -8 -8h-24v-12q0 -12 -12 -12h-392q-12 0 -12 12v12h-24q-8 0 -8 8v16q0 5 5 7l232 88q1 1 3 1t3 -1zM472 16q10 0 17 -7t7 -17v-16q0 -8 -8 -8h-464q-8 0 -8 8v16q0 10 7 17t17 7h432z" />
    <glyph glyph-name="wifi-primary" unicode="&#xf1eb;" horiz-adv-x="640" 
d="M320 96q26 0 45 -19t19 -45t-19 -45t-45 -19t-45 19t-19 45t19 45t45 19zM523 180v-1q11 -11 0 -23l-34 -34q-11 -10 -22 0q-63 54 -147 54t-147 -54q-11 -10 -22 0l-34 34l-1 1q-10 12 1 23q87 76 203 76t203 -76zM635 293q12 -12 0 -23l-34 -34q-11 -11 -23 0
q-109 100 -258 100t-259 -100q-11 -11 -22 0l-34 34h-1v1q-10 11 1 22q87 81 201 109.5t228 0t201 -109.5z" />
    <glyph glyph-name="ship-primary" unicode="&#xf21a;" horiz-adv-x="640" 
d="M575 158q-3 -7 -8 -13l-93 -89q-10 -10 -26.5 -16.5t-30.5 -7.5h-1q-33 0 -53 17q-18 15 -41 15h-1q-25 0 -45 -16t-52 -16q-9 0 -20.5 3.5t-21.5 9t-17 12.5l-92 88q-9 10 -9 23q0 10 6.5 18.5t15.5 11.5l224 72q5 2 10 2t10 -2l224 -72q9 -3 15.5 -11.5t6.5 -18.5
q0 -5 -2 -10h1z" />
    <glyph glyph-name="venus-primary" unicode="&#xf221;" horiz-adv-x="288" 
d="M288 272q0 -48 -33 -89t-79 -51v-52h36q12 0 12 -12v-40q0 -12 -12 -12h-36v-36q0 -12 -12 -12h-40q-12 0 -12 12v36h-36q-12 0 -12 12v40q0 12 12 12h36v52q-46 10 -79 51t-33 89q0 60 42 102t102 42t102 -42t42 -102zM144 192q33 0 56.5 23.5t23.5 56.5t-23.5 56.5
t-56.5 23.5t-56.5 -23.5t-23.5 -56.5t23.5 -56.5t56.5 -23.5z" />
    <glyph glyph-name="genderless-primary" unicode="&#xf22d;" horiz-adv-x="288" 
d="M144 336q60 0 102 -42t42 -102t-42 -102t-102 -42t-102 42t-42 102t42 102t102 42zM144 112q33 0 56.5 23.5t23.5 56.5t-23.5 56.5t-56.5 23.5t-56.5 -23.5t-23.5 -56.5t23.5 -56.5t56.5 -23.5z" />
    <glyph glyph-name="user-circle-primary" unicode="&#xf2bd;" 
d="M248 168q-36 0 -62 26t-26 62t26 62t62 26t62 -26t26 -62t-26 -62t-62 -26zM296 128q32 0 58 -16.5t40 -43.5q-10 -12 -23 -23q-60 -51 -139 -44t-130 67q14 27 40 43.5t58 16.5q4 0 7 -1q20 -7 41 -7t41 7q3 1 7 1z" />
    <glyph glyph-name="usd-circle-primary" unicode="&#xf2e8;" 
d="M224 320v16q0 7 4.5 11.5t11.5 4.5h16q7 0 11.5 -4.5t4.5 -11.5v-16q25 -1 46 -15q7 -5 7.5 -12.5t-4.5 -12.5l-12 -12q-9 -8 -20 -1q-9 5 -20 5h-45q-8 0 -14 -7t-6 -16q0 -18 15 -23l72 -22q22 -7 35.5 -26t13.5 -43q0 -29 -20 -50t-48 -21v-16q0 -7 -4.5 -11.5
t-11.5 -4.5h-16q-7 0 -11.5 4.5t-4.5 11.5v16q-25 1 -46 15q-7 5 -7.5 12.5t4.5 12.5l12 12q9 8 20 1q9 -5 20 -5h45q8 0 14 7t6 16q0 18 -15 23l-72 22q-11 3 -20 10t-15.5 16t-10 20t-3.5 23q0 29 20 50t48 21z" />
    <glyph glyph-name="scrubber-primary" unicode="&#xf2f8;" 
d="M248 128q-26 0 -45 19t-19 45t19 45t45 19t45 -19t19 -45t-19 -45t-45 -19z" />
    <glyph glyph-name="arrow-alt-down-primary" unicode="&#xf354;" horiz-adv-x="448" 
d="M409 151l-168 -176q-7 -7 -17 -7t-17 7l-168 176q-11 11 -5 26t22 15h336q16 0 22 -15t-5 -26z" />
    <glyph glyph-name="arrow-alt-up-primary" unicode="&#xf357;" horiz-adv-x="448" 
d="M39 233l168 176q7 7 17 7t17 -7l168 -176q11 -11 5 -26t-22 -15h-336q-16 0 -22 15t5 26z" />
    <glyph glyph-name="baseball-ball-primary" unicode="&#xf433;" 
d="M98 98l29 -14q-19 -40 -51 -70q-12 11 -22 23q28 26 44 61zM98 287q-17 34 -44 59q10 13 21 24q32 -30 51 -69zM398 286l-29 14q19 40 51 71q12 -12 22 -24q-28 -26 -44 -61zM376 193q0 -36 12 -70l-31 -11q-13 39 -13 80t13 79l30 -11q-11 -32 -11 -67zM398 97
q17 -34 44 -59q-10 -13 -21 -24q-32 30 -51 69zM108 261l31 11q13 -39 13 -80v-1q0 -40 -13 -77l-30 10q11 33 11 67q0 36 -12 70z" />
    <glyph glyph-name="basketball-ball-primary" unicode="&#xf434;" 
d="M280 -54q-16 -2 -32 -2v2v1q0 25 8 55.5t22.5 58.5t30.5 47l-61 61l-164 -163q-12 10 -22 22l163 164l-61 61q-28 -25 -75.5 -43t-85.5 -18h-1h-2q0 16 2 32h1q32 0 73 15t66 37l-80 80q10 12 22 22l80 -80q22 25 37 66t15 73v1q16 2 32 2v-2v-1q0 -38 -18 -85.5
t-43 -75.5l61 -61l164 163q12 -10 22 -22l-163 -164l61 -61q28 25 75.5 43t85.5 18h1h2q0 -16 -2 -32h-1q-32 0 -73 -15t-66 -37l80 -80q-10 -12 -22 -22l-80 80q-22 -25 -37 -66t-15 -73v-1z" />
    <glyph glyph-name="bowling-ball-primary" unicode="&#xf436;" 
d="M248 440q103 0 175.5 -72.5t72.5 -175.5t-72.5 -175.5t-175.5 -72.5t-175.5 72.5t-72.5 175.5t72.5 175.5t175.5 72.5zM120 256q13 0 22.5 9.5t9.5 22.5t-9.5 22.5t-22.5 9.5t-22.5 -9.5t-9.5 -22.5t9.5 -22.5t22.5 -9.5zM184 352q0 -13 9.5 -22.5t22.5 -9.5t22.5 9.5
t9.5 22.5t-9.5 22.5t-22.5 9.5t-22.5 -9.5t-9.5 -22.5zM232 208q13 0 22.5 9.5t9.5 22.5t-9.5 22.5t-22.5 9.5t-22.5 -9.5t-9.5 -22.5t9.5 -22.5t22.5 -9.5z" />
    <glyph glyph-name="football-ball-primary" unicode="&#xf44e;" 
d="M14 -4q-14 55 -14 122l174 -174q-67 0 -122 15q-12 3 -23 14t-15 23zM482 388q14 -55 14 -122l-174 174q67 0 122 -15q12 -3 23 -14t15 -23zM6 180q18 96 88 166t166 88l230 -230q-18 -96 -88 -166t-166 -88zM295 262l-30 29q-2 3 -5.5 3t-5.5 -3l-12 -12q-2 -2 -2 -5.5
t2 -5.5l29 -29l-23 -24l-29 29q-3 3 -6 3t-6 -3l-12 -11q-2 -3 -2 -6t2 -6l30 -29l-24 -23l-29 29q-2 2 -5.5 2t-6.5 -2l-11 -12q-3 -2 -3 -5.5t3 -6.5l29 -29l-29 -29q-3 -2 -3 -5.5t3 -6.5l11 -11q3 -3 6.5 -3t5.5 3l29 29l30 -29q2 -3 5.5 -3t5.5 3l12 11q2 3 2 6.5
t-2 5.5l-29 29l23 24l29 -30q3 -2 6 -2t6 2l12 12q2 3 2 6t-2 6l-30 29l24 23l29 -29q2 -2 5.5 -2t6.5 2l11 12q3 2 3 5.5t-3 6.5l-29 29l29 29q3 2 3 5.5t-3 6.5l-11 11q-3 3 -6.5 3t-5.5 -3z" />
    <glyph glyph-name="tennis-ball-primary" unicode="&#xf45e;" 
d="M425 163q42 -1 71 18q-4 -100 -74 -166.5t-164 -70.5q20 29 19 71q-2 57 45.5 103.5t102.5 44.5zM71 221q-42 2 -71 -18q4 99 73.5 166t163.5 71q-19 -29 -18 -71q2 -55 -44 -102t-104 -46zM288 152q-28 -28 -44 -65.5t-15 -72.5q0 -8 -0.5 -15t-3.5 -16t-9 -15.5
t-16.5 -10.5t-25.5 -2q-52 16 -99.5 63.5t-63.5 99.5q-2 18 3.5 30.5t16.5 17t20 6t19 1.5q35 -1 72.5 15t65.5 44t44 65.5t15 72.5q0 10 1.5 19t6 20t17 16.5t30.5 3.5q51 -16 99 -64t64 -99q2 -18 -3.5 -30t-16.5 -17t-20 -6.5t-19 -1.5q-35 2 -72.5 -14.5t-65.5 -44.5z
" />
    <glyph glyph-name="heart-circle-primary" unicode="&#xf4c7;" 
d="M372 168l-111 -114q-5 -6 -13 -6q-7 0 -12 5q-1 0 -1 1l-111 114q-24 24 -22.5 60t28.5 58q24 20 54.5 17.5t52.5 -24.5l11 -12l11 12q22 22 52.5 24.5t54.5 -17.5q27 -22 28.5 -57.5t-22.5 -60.5z" />
    <glyph glyph-name="smile-wink-primary" unicode="&#xf4da;" 
d="M388 226q1 -9 -6.5 -13t-13.5 2l-10 9q-11 9 -30 9t-30 -9l-10 -9q-6 -6 -13.5 -2t-6.5 13q3 18 21.5 30t38.5 12t38.5 -12t21.5 -30zM168 272q13 0 22.5 -9.5t9.5 -22.5t-9.5 -22.5t-22.5 -9.5t-22.5 9.5t-9.5 22.5t9.5 22.5t22.5 9.5z" />
    <glyph glyph-name="wine-glass-primary" unicode="&#xf4e3;" horiz-adv-x="288" 
d="M212 384h-136l-12 -134v-8q0 -26 16 -48q7 -10 20.5 -19t26.5 -11q8 -2 17 -2t18 2q12 2 25.5 11t20.5 19q16 22 16 48v8zM256 448q6 0 10.5 -4.5t4.5 -10.5l16 -178q1 -6 1 -13q0 -47 -33 -88.5t-79 -52.5v-117h40q17 0 28.5 -11.5t11.5 -28.5q0 -8 -8 -8h-208
q-8 0 -8 8q0 17 11.5 28.5t28.5 11.5h40v117q-46 11 -79 52.5t-33 88.5q0 7 1 13l16 178q0 4 2 7.5t5.5 5.5t7.5 2h224z" />
    <glyph glyph-name="compact-disc-primary" unicode="&#xf51f;" 
d="M248 288q40 0 68 -28t28 -68t-28 -68t-68 -28t-68 28t-28 68t28 68t68 28zM248 160q13 0 22.5 9.5t9.5 22.5t-9.5 22.5t-22.5 9.5t-22.5 -9.5t-9.5 -22.5t9.5 -22.5t22.5 -9.5z" />
    <glyph glyph-name="store-primary" unicode="&#xf54e;" horiz-adv-x="616" 
d="M602 329q26 -40 7 -85t-66 -51q-7 -1 -14 -1q-18 0 -39.5 10t-34.5 23q-4 -4 -9 -8.5t-11.5 -8t-13 -6.5t-13.5 -5.5t-13.5 -3.5t-12.5 -1q-16 0 -35 7.5t-31 17.5l-8 8q-12 -13 -34 -23t-40 -10q-15 0 -34.5 7.5t-31.5 17.5l-8 8q-12 -14 -33.5 -23.5t-39.5 -9.5h-1
q-6 0 -13 1q-47 6 -66 51t7 85l65 104q9 15 27 15h404q18 0 27 -15z" />
    <glyph glyph-name="angry-primary" unicode="&#xf556;" 
d="M205 247q11 -3 11 -15q0 -7 -4.5 -11.5t-11.5 -4.5h-1q1 -4 1 -8q0 -13 -9.5 -22.5t-22.5 -9.5t-22.5 9.5t-9.5 22.5q0 14 10 23l-31 10q-11 3 -11 15q0 7 4.5 11.5t11.5 4.5q2 0 5 -1zM392 261q1 -3 1 -5q0 -12 -11 -15l-32 -10q10 -9 10 -23q0 -13 -9.5 -22.5
t-22.5 -9.5t-22.5 9.5t-9.5 22.5q0 4 1 8q-7 0 -11.5 4.5t-4.5 11.5q0 12 11 15l80 24q3 1 5 1q12 0 15 -11z" />
    <glyph glyph-name="dizzy-primary" unicode="&#xf567;" 
d="M395 227q7 -7 4 -15.5t-11 -10.5t-15 4l-29 28l-29 -28q-7 -7 -15.5 -4t-11 10.5t4.5 15.5l28 29l-28 29q-7 7 -4 15.5t10.5 11t15.5 -4.5l29 -28l29 28q7 7 15.5 4t11 -10.5t-4.5 -15.5l-28 -29zM175 256l28 -29q7 -7 4 -15.5t-11 -10.5t-15 4l-29 28l-29 -28
q-7 -7 -15.5 -4t-11 10.5t4.5 15.5l28 29l-28 29q-7 7 -4 15.5t10.5 11t15.5 -4.5l29 -28l29 28q7 7 15.5 4t11 -10.5t-4.5 -15.5z" />
    <glyph glyph-name="flushed-primary" unicode="&#xf579;" 
d="M152 248q5 0 9.5 -2t7.5 -5t5 -7.5t2 -9.5q0 -10 -7 -17t-17 -7t-17 7t-7 17t7 17t17 7zM344 248q7 0 12.5 -3t8.5 -8.5t3 -12.5q0 -10 -7 -17t-17 -7t-17 7t-7 17t7 17t17 7z" />
    <glyph glyph-name="frown-open-primary" unicode="&#xf57a;" 
d="M168 272q13 0 22.5 -9.5t9.5 -22.5t-9.5 -22.5t-22.5 -9.5t-22.5 9.5t-9.5 22.5t9.5 22.5t22.5 9.5zM328 272q13 0 22.5 -9.5t9.5 -22.5t-9.5 -22.5t-22.5 -9.5t-22.5 9.5t-9.5 22.5t9.5 22.5t22.5 9.5z" />
    <glyph glyph-name="globe-africa-primary" unicode="&#xf57c;" 
d="M424 240q-7 0 -11.5 -4.5t-4.5 -11.5v-6q0 -10 -9 -14l-15 -8q-3 -2 -7 -2q-5 0 -9 3l-18 12q-4 3 -8 3q-3 0 -5 -1l-3 -1q-10 -3 -10 -15v-5q1 -2 2 -3l13 -20q5 -7 13 -7h8q7 0 11.5 -4.5t4.5 -11.5v-11q0 -5 -3 -9l-19 -25q-2 -3 -3 -7l-4 -22q-1 -5 -5 -9
q-14 -13 -25 -29l-13 -20q-8 -12 -23 -12q-17 0 -25 15q-8 17 -8 36v29q0 7 -4.5 11.5t-11.5 4.5h-25q-23 0 -39 16t-16 39v14q0 11 6.5 24t15.5 19l27 21q15 11 33 11h1q13 0 25 -6l14 -7q4 -2 7 -2t5 1l47 16q11 3 11 14q0 5 -2 8.5t-5.5 5.5t-8.5 2h-10q-6 0 -11 5l-7 6
q-4 5 -10 5h-1h-90q-4 0 -7.5 2t-5.5 5.5t-2 8.5v4q0 12 12 15l14 4q6 1 9 6l8 12q5 7 13 7h25q6 0 10.5 4.5t4.5 11.5v70q79 -10 137.5 -65t73.5 -133h-67z" />
    <glyph glyph-name="globe-americas-primary" unicode="&#xf57d;" 
d="M321 151l14 -14q9 -9 9 -22v0q0 -19 -14 -33l-11 -11q-5 -4 -6 -11q-4 -14 -5 -16l-14 -58q-3 -14 -17 -16q-3 0 -6 -1h-2q-9 0 -15 6.5t-6 14.5v29q1 10 -5.5 25.5t-17.5 26.5q-9 9 -9 22v32q0 19 -16 28q-31 17 -49 26t-32 22l-1 1q-10 9 -18 21q-10 14 -35 52
q-9 13 -9 28v46q9 11 23 23.5t29.5 23.5t27.5 17l41 -38q7 -7 16 -11q3 -2 7 -2q2 0 4 1q12 3 12 15t11 13h8h1q5 0 8 -3l25 -25q4 -4 4 -11t-4 -11l-5 -5l-10 -10q-3 -3 -3 -6t3 -6l4 -4q3 -3 3 -6t-3 -6l-8 -8q-2 -2 -5 -2h-9q-4 0 -6 -2l-10 -10q-2 -2 -2 -6q0 -2 1 -3
l15 -31q1 -2 1 -4q0 -8 -8 -8h-6q-3 0 -5 2l-9 8q-5 4 -11 4q-2 0 -5 -1l-31 -10q-8 -3 -8 -12q0 -7 7 -10l11 -6q14 -7 30 -7q6 0 17 -15t15 -17h67q13 0 22 -9zM478 286q18 -45 18 -94q0 -29 -6 -56l-56 29l-21 10q-6 3 -10 9l-18 27q-4 6 -4 13t4 13l19 30q4 5 10 8
q13 6 27 8z" />
    <glyph glyph-name="globe-asia-primary" unicode="&#xf57e;" 
d="M260 230.5q-1 0.5 -2 0.5q-3 0 -4 -2l-17 -29q-5 -8 -14 -8v0q-7 0 -12 -5l-5 -5q-3 -3 -3 -6t3 -6l5 -5q5 -5 5 -12v-9q0 -7 -4.5 -11.5t-11.5 -4.5h-6q-10 0 -14 9l-23 45q-2 5 -7 5q-3 0 -6 -3l-19 -19q-5 -5 -12 -5h-111q-2 16 -2 32q0 103 72.5 175.5t175.5 72.5
q33 0 64 -8v-35q0 -14 -11 -22l-42 -31q-3 -3 -3 -7q0 -5 4 -7l11 -6q9 -4 9 -14v-78q0 -8 -8 -8h-3q-5 0 -7 4q-1 2 -2 2.5zM403 125q5 -4 5 -11v-24q0 -7 -5 -12l-9 -9q-5 -5 -12 -5h-15q-6 0 -11 5l-13 13q-8 8 -19 8q-3 0 -7 -1l-21 -6h-4h-10q-7 0 -11 5l-12 12
q-2 2 -2 5v10q0 6 5 8l39 16q3 1 5 3l24 17q2 1 5 1h12q5 0 7 -5l6 -13q1 -2 3 -2h4q3 0 4 3l4 14q1 3 4 3h6q4 0 4 -4v-13q0 -3 2 -6z" />
    <glyph glyph-name="grimace-primary" unicode="&#xf57f;" 
d="M168 272q13 0 22.5 -9.5t9.5 -22.5t-9.5 -22.5t-22.5 -9.5t-22.5 9.5t-9.5 22.5t9.5 22.5t22.5 9.5zM328 272q13 0 22.5 -9.5t9.5 -22.5t-9.5 -22.5t-22.5 -9.5t-22.5 9.5t-9.5 22.5t9.5 22.5t22.5 9.5z" />
    <glyph glyph-name="grin-primary" unicode="&#xf580;" 
d="M168 272q13 0 22.5 -9.5t9.5 -22.5t-9.5 -22.5t-22.5 -9.5t-22.5 9.5t-9.5 22.5t9.5 22.5t22.5 9.5zM328 272q13 0 22.5 -9.5t9.5 -22.5t-9.5 -22.5t-22.5 -9.5t-22.5 9.5t-9.5 22.5t9.5 22.5t22.5 9.5z" />
    <glyph glyph-name="grin-alt-primary" unicode="&#xf581;" 
d="M152 311q6 9 16.5 9t15.5 -9q15 -21 16 -55q-1 -33 -16 -55q-5 -9 -15.5 -9t-16.5 9q-15 21 -16 55q1 33 16 55zM344 311q15 -21 16 -55q-1 -33 -16 -55q-5 -9 -15.5 -9t-16.5 9q-15 21 -16 55q1 33 16 55q6 9 16.5 9t15.5 -9z" />
    <glyph glyph-name="grin-beam-primary" unicode="&#xf582;" 
d="M168 296q19 0 36.5 -20.5t19.5 -50.5q1 -7 -5.5 -8.5t-9.5 3.5l-9 17q-13 22 -32 22t-31 -22l-10 -17q-3 -5 -9 -3.5t-6 8.5q2 30 19.5 50.5t36.5 20.5zM384 225q1 -7 -5.5 -8.5t-9.5 3.5l-9 17q-13 22 -32 22t-31 -22l-10 -17q-3 -5 -9 -3.5t-6 8.5q2 30 19.5 50.5
t36.5 20.5t36.5 -20.5t19.5 -50.5z" />
    <glyph glyph-name="grin-beam-sweat-primary" unicode="&#xf583;" horiz-adv-x="504" 
d="M462 445q42 -55 42 -78q0 -19 -14 -33t-34 -14t-34 14t-14 33q0 23 42 78q0 1 1 1q2 2 5 2q4 0 6 -3zM168 296q12 0 24 -9t21 -25.5t11 -36.5q1 -7 -5.5 -9t-9.5 4l-9 17q-13 22 -32 22t-31 -22l-10 -17q-3 -5 -9 -3.5t-6 8.5q2 30 19.5 50.5t36.5 20.5zM328 296
q19 0 36.5 -20.5t19.5 -50.5q1 -7 -5.5 -9t-9.5 4l-9 17q-13 22 -32 22t-31 -22l-10 -17q-3 -5 -9 -3.5t-6 8.5q1 15 6.5 28.5t13.5 22.5t17.5 14.5t18.5 5.5z" />
    <glyph glyph-name="grin-hearts-primary" unicode="&#xf584;" 
d="M186 319q2 0 4 -1q7 -1 13 -6.5t9.5 -12.5t3.5 -15q0 -4 -1 -9l-20 -70q-1 -6 -8 -6h-2l-70 18q-2 1 -4 1q-5 2 -9 5.5t-7 8t-5 10t-2 10.5q0 6 2 12q5 13 18 19.5t27 2.5l7 -2l2 8q4 13 16 21.5t26 5.5zM406 264q0 -1 1 -4q1 -4 1 -8q0 -12 -8 -22t-19 -13l-70 -18h-2
q-6 0 -8 6l-20 70q0 2 -1 4v6q0 12 9 22.5t21 12.5q14 2 26 -6.5t16 -21.5l2 -8l7 2q14 4 27 -2t18 -20z" />
    <glyph glyph-name="grin-squint-primary" unicode="&#xf585;" 
d="M214 250q6 -3 6 -10t-6 -10l-80 -48q-8 -5 -15 2.5t0 15.5l33 40l-33 40q-7 8 0 15.5t15 2.5zM377 200q7 -8 0 -15.5t-15 -2.5l-80 48q-6 3 -6 10t6 10l80 48q8 5 15 -2.5t0 -15.5l-33 -40z" />
    <glyph glyph-name="grin-stars-primary" unicode="&#xf587;" 
d="M209 279q7 -1 7 -8q0 -3 -2 -5l-26 -25l6 -35v-1q0 -7 -7 -7h-4l-31 17l-31 -17q-2 -1 -4 -1q-7 0 -7 8v1l6 35l-26 25q-2 2 -2 5q0 7 7 8l35 5l15 32q2 4 7 4t7 -4l15 -32zM401 279q7 -1 7 -8q0 -3 -2 -5l-26 -25l6 -35v-1q0 -7 -7 -7h-4l-31 17l-31 -17q-2 -1 -4 -1
q-7 0 -7 8v1l6 35l-26 25l-2 4v1q0 7 7 8l35 5l15 32q2 4 7 4t7 -4l15 -32z" />
    <glyph glyph-name="grin-tongue-primary" unicode="&#xf589;" 
d="M258 56q3 11 13.5 16.5t21.5 0.5q3 -1 19 -9v-65q0 -26 -19 -44.5t-45 -18.5h-1q-26 0 -44.5 19t-18.5 46v63q18 9 19 9q11 5 21.5 -0.5t13.5 -16.5l1 -8q2 -7 9 -7t9 7zM200 240q0 -13 -9.5 -22.5t-22.5 -9.5t-22.5 9.5t-9.5 22.5t9.5 22.5t22.5 9.5t22.5 -9.5
t9.5 -22.5zM328 272q13 0 22.5 -9.5t9.5 -22.5t-9.5 -22.5t-22.5 -9.5t-22.5 9.5t-9.5 22.5t9.5 22.5t22.5 9.5z" />
    <glyph glyph-name="grin-tongue-squint-primary" unicode="&#xf58a;" 
d="M214 250q6 -3 6 -10t-6 -10l-80 -48q-8 -5 -15 2.5t0 15.5l33 40l-33 40q-7 8 0 15.5t15 2.5zM258 56q2 7 7.5 12.5t13 6.5t14.5 -2q3 -1 19 -9v-65q0 -26 -19 -44.5t-45 -18.5h-1q-26 0 -44.5 19t-18.5 46v63q18 9 19 9q11 5 21.5 -0.5t13.5 -16.5l1 -8q2 -7 9 -7t9 7z
M377 200q7 -8 0 -15.5t-15 -2.5l-80 48q-6 3 -6 10t6 10l80 48q9 5 15.5 -2.5t-0.5 -15.5l-33 -40z" />
    <glyph glyph-name="grin-tongue-wink-primary" unicode="&#xf58b;" 
d="M212 226q1 -9 -6.5 -13t-13.5 2l-10 8q-11 10 -30 10t-30 -10l-10 -8q-6 -6 -13.5 -2t-6.5 13q2 12 11.5 22t22.5 15t26 5t26 -5t22.5 -15t11.5 -22zM258 56q3 11 13.5 16.5t21.5 0.5q3 -1 19 -9v-65q0 -26 -19 -44.5t-45 -18.5h-1q-17 0 -31.5 9t-23 24t-8.5 32v63
q18 9 19 9q11 5 21.5 -0.5t13.5 -16.5l1 -8q2 -7 9 -7t9 7zM344 264q7 0 12.5 -3t8.5 -8.5t3 -12.5q0 -10 -7 -17t-17 -7t-17 7t-7 17t7 17t17 7z" />
    <glyph glyph-name="grin-wink-primary" unicode="&#xf58c;" 
d="M168 272q13 0 22.5 -9.5t9.5 -22.5t-9.5 -22.5t-22.5 -9.5t-22.5 9.5t-9.5 22.5t9.5 22.5t22.5 9.5zM388 226q1 -8 -6.5 -12.5t-13.5 1.5l-10 9q-11 9 -30 9t-30 -9l-10 -9q-6 -6 -13.5 -2t-6.5 13q3 18 21.5 30t38.5 12t38.5 -12t21.5 -30z" />
    <glyph glyph-name="kiss-primary" unicode="&#xf596;" 
d="M328 272q13 0 22.5 -9.5t9.5 -22.5t-9.5 -22.5t-22.5 -9.5t-22.5 9.5t-9.5 22.5t9.5 22.5t22.5 9.5zM168 272q13 0 22.5 -9.5t9.5 -22.5t-9.5 -22.5t-22.5 -9.5t-22.5 9.5t-9.5 22.5t9.5 22.5t22.5 9.5z" />
    <glyph glyph-name="kiss-beam-primary" unicode="&#xf597;" 
d="M384 225q0 -7 -6 -9t-9 4l-9 17q-13 22 -32 22t-32 -22l-9 -17q-3 -5 -9 -3.5t-6 8.5q2 30 19.5 50.5t36.5 20.5t36.5 -20.5t19.5 -50.5zM168 296q19 0 36.5 -20.5t19.5 -50.5q0 -7 -6 -9t-9 4l-9 17q-13 22 -32 22t-32 -22l-9 -17q-3 -5 -9 -3.5t-6 8.5q2 30 19.5 50.5
t36.5 20.5z" />
    <glyph glyph-name="kiss-wink-heart-primary" unicode="&#xf598;" horiz-adv-x="504" 
d="M501 46q3 -8 3 -16q0 -13 -9 -25t-22 -15l-83 -22h-3q-8 0 -10 7l-23 83q-1 5 -1 11q0 15 10.5 27t24.5 15q17 2 31 -7.5t18 -25.5l3 -9l8 2q16 5 31.5 -2.5t21.5 -22.5zM384 231l-9 9q-6 4 -14 6.5t-16.5 2.5t-17 -2.5t-13.5 -6.5l-10 -9q-6 -6 -13.5 -2t-6.5 13
q2 12 11.5 22t22.5 15t26 5q20 0 38.5 -12t21.5 -30v-2q0 -5 -3.5 -8.5t-8.5 -3.5q-4 0 -8 3zM168 272q13 0 22.5 -9.5t9.5 -22.5t-9.5 -22.5t-22.5 -9.5t-22.5 9.5t-9.5 22.5t9.5 22.5t22.5 9.5z" />
    <glyph glyph-name="laugh-primary" unicode="&#xf599;" 
d="M328 288q13 0 22.5 -9.5t9.5 -22.5t-9.5 -22.5t-22.5 -9.5t-22.5 9.5t-9.5 22.5t9.5 22.5t22.5 9.5zM168 288q13 0 22.5 -9.5t9.5 -22.5t-9.5 -22.5t-22.5 -9.5t-22.5 9.5t-9.5 22.5t9.5 22.5t22.5 9.5z" />
    <glyph glyph-name="laugh-beam-primary" unicode="&#xf59a;" 
d="M384 241q1 -7 -5.5 -8.5t-9.5 3.5l-9 17q-13 22 -32 22t-31 -22l-10 -17q-3 -5 -9.5 -3.5t-5.5 8.5q2 30 19.5 50.5t36.5 20.5q12 0 24 -9t21 -25.5t11 -36.5zM168 312q9 0 18.5 -5.5t17.5 -14.5t13.5 -22.5t6.5 -28.5q1 -7 -5.5 -8.5t-9.5 3.5l-9 17q-13 22 -32 22
t-31 -22l-10 -17q-3 -5 -9.5 -3.5t-5.5 8.5q1 12 5 23t9.5 20t12.5 15t14.5 9.5t14.5 3.5z" />
    <glyph glyph-name="laugh-squint-primary" unicode="&#xf59b;" 
d="M377 228q7 -8 0 -15.5t-15 -2.5l-80 48q-6 3 -6 10t6 10l80 48q8 5 15 -2.5t0 -15.5l-33 -40zM214 278q6 -3 6 -10t-6 -10l-80 -48q-8 -5 -15 2.5t0 15.5l33 40l-33 40q-7 8 0 15.5t15 2.5z" />
    <glyph glyph-name="laugh-wink-primary" unicode="&#xf59c;" 
d="M388 242q1 -8 -6.5 -12.5t-13.5 1.5l-9 9q-12 9 -31 9t-30 -9l-10 -9q-3 -3 -8 -3t-8.5 3.5t-3.5 8.5v2q2 12 11.5 22t22.5 15t26 5q20 0 38.5 -12t21.5 -30zM168 288q13 0 22.5 -9.5t9.5 -22.5t-9.5 -22.5t-22.5 -9.5t-22.5 9.5t-9.5 22.5t9.5 22.5t22.5 9.5z" />
    <glyph glyph-name="meh-blank-primary" unicode="&#xf5a4;" 
d="M168 272q13 0 22.5 -9.5t9.5 -22.5t-9.5 -22.5t-22.5 -9.5t-22.5 9.5t-9.5 22.5t9.5 22.5t22.5 9.5zM328 272q13 0 22.5 -9.5t9.5 -22.5t-9.5 -22.5t-22.5 -9.5t-22.5 9.5t-9.5 22.5t9.5 22.5t22.5 9.5z" />
    <glyph glyph-name="meh-rolling-eyes-primary" unicode="&#xf5a5;" 
d="M375 280q1 -4 1 -8q0 -13 -9.5 -22.5t-22.5 -9.5t-22.5 9.5t-9.5 22.5q0 4 1 8q14 8 31 8t31 -8zM152 288q17 0 31 -8q1 -4 1 -8q0 -13 -9.5 -22.5t-22.5 -9.5t-22.5 9.5t-9.5 22.5q0 4 1 8q14 8 31 8z" />
    <glyph glyph-name="sad-cry-primary" unicode="&#xf5b3;" 
d="M152 268q20 0 38.5 -12t21.5 -30v-2q0 -5 -3.5 -8.5t-8.5 -3.5q-4 0 -8 3l-10 9q-11 9 -30 9t-30 -9l-10 -9q-3 -3 -8 -3t-8.5 3.5t-3.5 8.5v2q3 18 21.5 30t38.5 12zM404 226v-2q0 -7 -6 -10q-3 -2 -6 -2q-4 0 -8 3l-9 9q-12 9 -31 9t-30 -9l-10 -9q-3 -3 -8 -3
t-8.5 3.5t-3.5 8.5v2q2 12 11.5 22t22.5 15t26 5q20 0 38.5 -12t21.5 -30zM360 176q7 0 11.5 -4.5t4.5 -11.5v-180q-15 -10 -32 -17v197q0 7 4.5 11.5t11.5 4.5zM136 176q7 0 11.5 -4.5t4.5 -11.5v-197q-17 7 -32 17v180q0 7 4.5 11.5t11.5 4.5z" />
    <glyph glyph-name="sad-tear-primary" unicode="&#xf5b4;" 
d="M328 272q13 0 22.5 -9.5t9.5 -22.5t-9.5 -22.5t-22.5 -9.5t-22.5 9.5t-9.5 22.5t9.5 22.5t22.5 9.5zM146 157q0 1 1 1q2 2 5 2q4 0 6 -3q42 -55 42 -78q0 -19 -14 -33t-34 -14t-34 14t-14 33q0 23 42 78zM168 272q13 0 22.5 -9.5t9.5 -22.5t-9.5 -22.5t-22.5 -9.5
t-22.5 9.5t-9.5 22.5t9.5 22.5t22.5 9.5z" />
    <glyph glyph-name="smile-beam-primary" unicode="&#xf5b8;" 
d="M168 296q19 0 36.5 -20.5t19.5 -50.5q1 -7 -5.5 -8.5t-9.5 3.5l-9 17q-13 22 -32 22t-31 -22l-10 -17q-3 -5 -9.5 -3.5t-5.5 8.5q2 20 11 36.5t21 25.5t24 9zM384 225q1 -7 -5.5 -8.5t-9.5 3.5l-10 17q-12 22 -31 22t-32 -22l-9 -17q-3 -5 -9 -3.5t-6 8.5q2 20 11 36.5
t21 25.5t24 9q19 0 36.5 -20.5t19.5 -50.5z" />
    <glyph glyph-name="star-half-alt-primary" unicode="&#xf5c0;" horiz-adv-x="536" 
d="M90 -26l25 145l-105 103q-15 14 -8.5 33t25.5 22l147 21l65 132q4 8 12 13t16 5h1v-440l-131 -68q-18 -9 -34 2.5t-13 31.5z" />
    <glyph glyph-name="surprise-primary" unicode="&#xf5c2;" 
d="M328 272q13 0 22.5 -9.5t9.5 -22.5t-9.5 -22.5t-22.5 -9.5t-22.5 9.5t-9.5 22.5t9.5 22.5t22.5 9.5zM168 272q13 0 22.5 -9.5t9.5 -22.5t-9.5 -22.5t-22.5 -9.5t-22.5 9.5t-9.5 22.5t9.5 22.5t22.5 9.5z" />
    <glyph glyph-name="swatchbook-primary" unicode="&#xf5c3;" horiz-adv-x="512" 
d="M160 448q13 0 22.5 -9.5t9.5 -22.5v-384q0 -40 -28 -68t-68 -28t-68 28t-28 68v384q0 13 9.5 22.5t22.5 9.5h128zM96 8q10 0 17 7t7 17t-7 17t-17 7t-17 -7t-7 -17t7 -17t17 -7zM128 192v64h-64v-64h64zM128 320v64h-64v-64h64z" />
    <glyph glyph-name="tired-primary" unicode="&#xf5c8;" 
d="M214 250q6 -3 6 -10t-6 -10l-80 -48q-8 -5 -15 2.5t0 15.5l33 40l-33 40q-7 8 0 15.5t15 2.5zM377 200q7 -8 0 -15.5t-15 -2.5l-80 48q-6 3 -6 10t6 10l80 48q8 5 15 -2.5t0 -15.5l-33 -40z" />
    <glyph glyph-name="wine-glass-alt-primary" unicode="&#xf5ce;" horiz-adv-x="288" 
d="M212 384h-136l-12 -134v-8q0 -26 16 -48q7 -10 20.5 -19t26.5 -11q8 -2 17 -2t18 2q12 2 25.5 11t20.5 19q16 22 16 48v8zM256 448q6 0 10.5 -4.5t4.5 -10.5l16 -178q1 -6 1 -13q0 -47 -33 -88.5t-79 -52.5v-117h40q17 0 28.5 -11.5t11.5 -28.5q0 -8 -8 -8h-208
q-8 0 -8 8q0 17 11.5 28.5t28.5 11.5h40v117q-46 11 -79 52.5t-33 88.5q0 7 1 13l16 178q0 4 2 7.5t5.5 5.5t7.5 2h224z" />
    <glyph glyph-name="car-alt-primary" unicode="&#xf5de;" horiz-adv-x="480" 
d="M439 236q17 -7 29 -24.5t12 -35.5v-48q0 -26 -19 -45t-45 -19h-352q-26 0 -45 19t-19 45v48q0 18 12 35.5t29 24.5l31 78q12 29 42.5 49.5t61.5 20.5h128q31 0 61.5 -20.5t41.5 -49.5zM132 290l-20 -50h256l-20 50q-3 8 -10 15t-16.5 11t-17.5 4h-128q-13 0 -26 -9
t-18 -21zM80 128h8.5h9.5t8.5 0.5t8.5 1.5t6.5 2.5t5 4.5t1.5 7q0 15 -17 31.5t-31 16.5q-7 0 -13 -2.5t-10 -6.5t-6.5 -10t-2.5 -13q0 -14 9 -23t23 -9zM400 128q14 0 23 9t9 23t-9 23t-23 9q-9 0 -20.5 -8t-19.5 -19.5t-8 -20.5q0 -4 1.5 -7t5 -4.5t6.5 -2.5t8.5 -1.5
t8.5 -0.5h9.5h8.5z" />
    <glyph glyph-name="car-wash-primary" unicode="&#xf5e6;" horiz-adv-x="464" 
d="M424 155q17 -7 28.5 -24t11.5 -35v-32q0 -26 -19 -45t-45 -19h-336q-26 0 -45 19t-19 45v32q0 18 11.5 35t28.5 24l5 13l19 50q6 14 17 27t25 22.5t30.5 15t31.5 5.5h127h1q31 0 61.5 -20.5t41.5 -49.5l20 -50zM124 194l-14 -34h244l-14 34q-3 8 -10 15t-16.5 11t-17.5 4
h-128q-13 0 -26 -9t-18 -21zM72 48h8.5h9.5t8.5 0.5t8.5 1.5t6.5 2.5t5 4.5t1.5 7q0 15 -17 31.5t-31 16.5q-10 0 -17 -4t-11 -11t-4 -17q0 -14 9 -23t23 -9zM424 80q0 14 -9 23t-23 9q-9 0 -20.5 -8t-19.5 -19.5t-8 -20.5q0 -4 1.5 -7t5 -4.5t6.5 -2.5t8.5 -1.5t8.5 -0.5
h9.5h8.5q14 0 23 9t9 23z" />
    <glyph glyph-name="do-not-enter-primary" unicode="&#xf5ec;" 
d="M248 440q103 0 175.5 -72.5t72.5 -175.5t-72.5 -175.5t-175.5 -72.5t-175.5 72.5t-72.5 175.5t72.5 175.5t175.5 72.5zM424 144q7 0 11.5 4.5t4.5 11.5v64q0 7 -4.5 11.5t-11.5 4.5h-352q-7 0 -11.5 -4.5t-4.5 -11.5v-64q0 -7 4.5 -11.5t11.5 -4.5h352z" />
    <glyph glyph-name="location-circle-primary" unicode="&#xf602;" 
d="M118 206l208 96q15 6 26.5 -5.5t5.5 -26.5l-96 -208q-8 -18 -27 -13.5t-19 23.5v88h-88q-19 0 -23.5 19t13.5 27z" />
    <glyph glyph-name="parking-circle-primary" unicode="&#xf615;" 
d="M280 304q33 0 56.5 -23.5t23.5 -56.5t-23.5 -56.5t-56.5 -23.5h-48v-48q0 -7 -4.5 -11.5t-11.5 -4.5h-32q-7 0 -11.5 4.5t-4.5 11.5v192q0 7 4.5 11.5t11.5 4.5h96zM280 208q7 0 11.5 4.5t4.5 11.5t-4.5 11.5t-11.5 4.5h-48v-32h48z" />
    <glyph glyph-name="parking-circle-slash-primary" unicode="&#xf616;" 
d="M248 440q103 0 175.5 -72.5t72.5 -175.5t-72.5 -175.5t-175.5 -72.5t-175.5 72.5t-72.5 175.5t72.5 175.5t175.5 72.5zM248 8q29 0 65.5 14t58.5 34l-287 221q-21 -40 -21 -85q0 -76 54 -130t130 -54zM411 107q21 40 21 85q0 76 -54 130t-130 54q-29 0 -65.5 -14
t-58.5 -34z" />
    <glyph glyph-name="steering-wheel-primary" unicode="&#xf622;" 
d="M248 376q-76 0 -130 -54t-54 -130t54 -130t130 -54t130 54t54 130t-54 130t-130 54zM248 440q103 0 175.5 -72.5t72.5 -175.5t-72.5 -175.5t-175.5 -72.5t-175.5 72.5t-72.5 175.5t72.5 175.5t175.5 72.5z" />
    <glyph glyph-name="bullseye-arrow-primary" unicode="&#xf648;" 
d="M310 370l64 64q6 6 14 6q15 0 20 -14l18 -56l56 -18q14 -5 14 -20q0 -8 -6 -14l-64 -64q-6 -6 -14 -6q-4 0 -7 1l-49 17l-91 -91q-7 -7 -17 -7t-17 7t-7 17t7 17l91 91l-17 49q-1 3 -1 7q0 8 6 14z" />
    <glyph glyph-name="bullseye-pointer-primary" unicode="&#xf649;" 
d="M242 207q3 1 5 1q7 0 12 -5t5 -12q0 -3 -1 -5l-60 -214q-4 -11 -15.5 -12t-16.5 9l-33 69l-89 -89q-5 -5 -11.5 -5t-10.5 5l-22 22q-5 4 -5 10.5t5 11.5v0l89 89l-69 33q-10 5 -9 16.5t12 14.5z" />
    <glyph glyph-name="peace-primary" unicode="&#xf67c;" 
d="M248 440q103 0 175.5 -72.5t72.5 -175.5t-72.5 -175.5t-175.5 -72.5t-175.5 72.5t-72.5 175.5t72.5 175.5t175.5 72.5zM378 62h1q53 54 53 130.5t-54 130t-130 53.5t-130 -54q-22 -22 -38 -60t-16 -70t16 -70t38 -60t60 -38t70 -16t70 16t60 38z" />
    <glyph glyph-name="star-of-david-primary" unicode="&#xf69a;" horiz-adv-x="464" 
d="M91 137l-20 -33h217l-33 -56h-218q-21 0 -32 18t0 37l53 89zM128 199l-4 -7l-33 55l109 183q5 7 14 12.5t18 5.5q6 0 12 -2.5t11.5 -6.5t8.5 -9l56 -94h-65l-23 38l-23 -38l-33 -56zM459 103q11 -19 0 -37t-32 -18h-107l33 56h40l-61 102l-44 74h65z" />
    <glyph glyph-name="wifi-1-primary" unicode="&#xf6aa;" horiz-adv-x="640" 
d="M320 96q26 0 45 -19t19 -45t-19 -45t-45 -19t-45 19t-19 45t19 45t45 19z" />
    <glyph glyph-name="wifi-2-primary" unicode="&#xf6ab;" horiz-adv-x="640" 
d="M320 96q26 0 45 -19t19 -45t-19 -45t-45 -19t-45 19t-19 45t19 45t45 19zM524 179q11 -12 -1 -23l-34 -34q-11 -10 -22 0q-63 54 -147 54t-147 -54q-11 -10 -22 0l-34 34l-1 1q-10 12 1 23q87 76 203 76t203 -76z" />
    <glyph glyph-name="yin-yang-primary" unicode="&#xf6ad;" 
d="M248 288q-13 0 -22.5 9.5t-9.5 22.5t9.5 22.5t22.5 9.5t22.5 -9.5t9.5 -22.5t-9.5 -22.5t-22.5 -9.5zM248 440q103 0 175.5 -72.5t72.5 -175.5t-72.5 -175.5t-175.5 -72.5q-51 0 -87.5 36.5t-36.5 87.5t36.5 87.5t87.5 36.5t87.5 36.5t36.5 87.5t-36.5 87.5t-87.5 36.5z
M248 32q13 0 22.5 9.5t9.5 22.5t-9.5 22.5t-22.5 9.5t-22.5 -9.5t-9.5 -22.5t9.5 -22.5t22.5 -9.5z" />
    <glyph glyph-name="globe-europe-primary" unicode="&#xf7a2;" 
d="M187 291q-3 -3 -8 -3h-16q-4 0 -7.5 3t-3.5 8t3 8l26 25q3 4 7.5 4t8 -3.5t3.5 -8.5v-16q0 -4 -3 -8zM419 101q21 -19 21 -46v-20q-26 -32 -72.5 -58t-87.5 -31v54q0 6 -4.5 11t-11.5 5h-20q-20 0 -36 11l-22 17q-18 14 -18 36v24q0 7 3 15t8 14.5t11 9.5l43 26
q11 7 23 7h32q17 0 29 -11l43 -37h19q13 0 22 -10zM318 430q51 -15 91.5 -49.5t63.5 -84t23 -104.5q0 -33 -8 -64h-49q-7 0 -11 4l-32 33q-4 3 -4 8t4 9l12 12v9q0 5 -3 8l-10 9q-3 4 -8 4h-16q-4 0 -7.5 3t-3.5 8t3 8l10 9q3 4 8 4h32q4 0 7.5 3t3.5 8v9q0 5 -3.5 8.5
t-7.5 3.5h-37q-7 0 -11.5 -5t-4.5 -11v-5q0 -11 -11 -15l-31 -11q-6 -1 -6 -7v-2q0 -8 -8 -8h-16q-8 0 -8 8t-8 8h-3q-5 0 -7 -5l-10 -19q-4 -8 -14 -8h-22q-7 0 -11.5 4.5t-4.5 11.5v25q0 7 5 11l20 20q7 8 7 18v0q0 6 6 8l40 13q2 1 4 3l27 26q3 4 3 8q0 3 -1.5 6t-4 4.5
t-5.5 1.5h-21l-16 -16v-8q0 -8 -8 -8h-16q-8 0 -8 8v20q0 4 3 6z" />
    <glyph glyph-name="grip-lines-vertical-primary" unicode="&#xf7a5;" horiz-adv-x="256" 
d="M96 432v-480q0 -7 -4.5 -11.5t-11.5 -4.5h-32q-7 0 -11.5 4.5t-4.5 11.5v480q0 7 4.5 11.5t11.5 4.5h32q7 0 11.5 -4.5t4.5 -11.5z" />
    <glyph glyph-name="radiation-primary" unicode="&#xf7b9;" 
d="M125 -4l81 128q19 -12 42 -12t42 12l81 -128q3 -6 1.5 -12.5t-7.5 -9.5q-23 -13 -57 -21.5t-60 -8.5q-17 0 -38.5 4t-42.5 11t-36 15q-6 3 -7.5 9.5t1.5 12.5zM16 192q-4 0 -8 2.5t-6 6t-2 8.5q4 56 31 104t72 80q5 4 12 2.5t10 -7.5l81 -128q-38 -24 -38 -68h-152z
M328 192q0 44 -38 68l81 128q3 6 10 7.5t13 -2.5q29 -21 51 -49.5t35 -63t16 -71.5q0 -7 -4.5 -12t-11.5 -5h-152z" />
    <glyph glyph-name="radiation-alt-primary" unicode="&#xf7ba;" 
d="M105 192q-7 0 -12 5t-4 12q3 27 20.5 59t39.5 49l1 1q4 2 9 2q9 0 13 -7l42 -67q-12 -8 -21 -23.5t-9 -30.5h-79zM312 192q0 15 -9 30.5t-21 23.5l42 67q0 1 1 1q5 6 12 6q6 0 11 -3q52 -42 59 -108q1 -5 -1.5 -8.5t-6 -6t-8.5 -2.5h-79zM172 71l42 67q16 -10 34 -10
t34 10l42 -67q3 -6 1.5 -12.5t-7.5 -10.5q-33 -16 -70 -16t-70 16q-6 4 -7.5 10.5t1.5 12.5z" />
    <glyph glyph-name="flower-primary" unicode="&#xf7ff;" horiz-adv-x="512" 
d="M336 192q0 -33 -23.5 -56.5t-56.5 -23.5t-56.5 23.5t-23.5 56.5t23.5 56.5t56.5 23.5t56.5 -23.5t23.5 -56.5z" />
    <glyph glyph-name="french-fries-primary" unicode="&#xf803;" horiz-adv-x="512" 
d="M64 208q0 7 4.5 11.5t11.5 4.5h34q13 0 15 -11q7 -29 43 -49t84 -20t84 20t43 49q2 11 15 11h34q7 0 11.5 -4.5t4.5 -11.5v-3l-55 -244q-2 -10 -11 -17.5t-20 -7.5h-212q-11 0 -20 7.5t-12 17.5l-54 244v3z" />
    <glyph glyph-name="hand-middle-finger-primary" unicode="&#xf806;" horiz-adv-x="512" 
d="M480 131v-83q0 -30 -15 -56t-41 -41t-56 -15h-215q-19 0 -42.5 9.5t-36.5 23.5l-31 31q-11 11 -11 26v74q0 9 6 19t15 14l27 15v-76q0 -8 8 -8t8 8v147q0 8 4 14.5t11 11t16 5.5l31 6q8 1 16 -2t13 -9t5 -13v-32q0 -8 8 -8t8 8v201q0 13 6.5 24t17.5 17t24 6h1
q13 0 24 -7t17 -18.5t6 -24.5v-198q0 -8 8 -8t8 8v32q0 11 10.5 18.5t23.5 5.5l39 -7q10 -2 16.5 -8.5t6.5 -14.5v-50l36 -9q11 -3 19.5 -13.5t8.5 -22.5z" />
    <glyph glyph-name="ice-cream-primary" unicode="&#xf810;" horiz-adv-x="448" 
d="M195 -46l-99 206h256l-99 -206q-3 -5 -7.5 -9t-10.5 -6.5t-11 -2.5t-11 2.5t-10.5 6.5t-7.5 9z" />
    <glyph glyph-name="popcorn-primary" unicode="&#xf819;" horiz-adv-x="512" 
d="M64 256h82l28 -256h45l-22 256h118l-22 -256h45l28 256h82l-44 -293q-2 -11 -11 -19t-21 -8h-232q-8 0 -15 3.5t-11.5 10t-5.5 13.5z" />
    <glyph glyph-name="tree-palm-primary" unicode="&#xf82b;" horiz-adv-x="640" 
d="M608 275q1 -7 -4.5 -13t-13.5 -6h-54l-24 48l-24 -48h-192l-155 -154q-6 -6 -13.5 -6t-12.5 7q-26 38 -16.5 92.5t52.5 96.5q2 2 5.5 5t4.5 4l-33 67l-24 -48h-54q-5 0 -9.5 2.5t-7 7t-1.5 9.5q9 47 54 78t105 31q55 0 98 -26.5t57 -67.5q45 30 103 30q60 0 105 -31
t54 -78z" />
    <glyph glyph-name="send-backward-primary" unicode="&#xf87f;" horiz-adv-x="514" 
d="M160 96h-112q-20 0 -34 14t-14 34v256q0 20 14 34t34 14h256q20 0 34 -14t14 -34v-112h-144q-20 0 -34 -14t-14 -34v-144z" />
    <glyph glyph-name="skull-cow-primary" unicode="&#xf8de;" horiz-adv-x="640" 
d="M416 352q26 0 45 -19t19 -45v-128q0 -26 -19 -45t-45 -19l-27 -134q-2 -11 -11 -18.5t-20 -7.5h-76q-7 0 -13.5 3.5t-11.5 9.5t-6 13l-27 134q-26 0 -45 19t-19 45v128q0 26 19 45t45 19h192zM240 160q13 0 22.5 9.5t9.5 22.5t-9.5 22.5t-22.5 9.5t-22.5 -9.5t-9.5 -22.5
t9.5 -22.5t22.5 -9.5zM400 160q13 0 22.5 9.5t9.5 22.5t-9.5 22.5t-22.5 9.5t-22.5 -9.5t-9.5 -22.5t9.5 -22.5t22.5 -9.5z" />
    <glyph glyph-name="wagon-covered-primary" unicode="&#xf8ee;" horiz-adv-x="640" 
d="M560 192q7 0 11.5 -4.5t4.5 -11.5v-32q0 -7 -4.5 -11.5t-11.5 -4.5h-18q-9 9 -22.5 16t-28.5 11.5t-27 4.5q-19 0 -42.5 -9.5t-36.5 -23.5q-40 -39 -31 -95h-68q8 56 -31 95q-13 14 -36.5 23.5t-42.5 9.5t-42 -9.5t-36 -22.5h-18q-7 0 -11.5 4.5t-4.5 11.5v32
q0 7 4.5 11.5t11.5 4.5h480zM416 408v-184h-32v184q0 8 8 8h16q8 0 8 -8zM256 408v-184h-32v184q0 8 8 8h16q8 0 8 -8z" />
    <glyph glyph-name="times-secondary" unicode="&#x10f00d;" horiz-adv-x="352" 
d="M9 92l100 100l67 -67l-100 -100q-9 -9 -22 -9t-23 9l-22 22q-9 10 -9 23t9 22zM343 337q9 -10 9 -23t-9 -22l-100 -100l-67 67l100 100q9 9 22 9t23 -9z" />
    <glyph glyph-name="step-backward-secondary" unicode="&#x10f048;" horiz-adv-x="448" 
d="M144 155v-171q0 -7 -4.5 -11.5t-11.5 -4.5h-48q-7 0 -11.5 4.5t-4.5 11.5v416q0 7 4.5 11.5t11.5 4.5h48q7 0 11.5 -4.5t4.5 -11.5v-245z" />
    <glyph glyph-name="step-forward-secondary" unicode="&#x10f051;" horiz-adv-x="448" 
d="M304 229v171q0 7 4.5 11.5t11.5 4.5h48q7 0 11.5 -4.5t4.5 -11.5v-416q0 -7 -4.5 -11.5t-11.5 -4.5h-48q-7 0 -11.5 4.5t-4.5 11.5v245z" />
    <glyph glyph-name="globe-secondary" unicode="&#x10f0ac;" 
d="M340 128h-184q-4 32 -4 64t4 64h184q4 -32 4 -64v0q0 -32 -4 -64zM160 288q1 5 2 7q8 46 25 82q15 33 33 50q14 13 27.5 13t28.5 -13q18 -17 33 -50q16 -35 26 -82q0 -4 1 -7h-176zM120 192q0 -32 3 -64h-115q-8 31 -8 64t8 64h115q-3 -32 -3 -64zM488 256q8 -32 8 -64.5
t-8 -63.5h-115q3 32 3 64t-3 64h115zM477 288h-109q-15 91 -52 143q47 -14 94.5 -55.5t66.5 -87.5zM316 -47q37 52 52 143h109q-13 -30 -39 -59.5t-58.5 -52t-63.5 -31.5zM336 96q-1 -5 -1 -7q-9 -46 -26 -82q-15 -33 -33 -50q-15 -13 -28.5 -13t-27.5 13q-18 17 -33 50
q-16 35 -26 82q0 4 -1 7h176zM180 431q-37 -52 -52 -143h-109q19 46 66.5 87.5t94.5 55.5zM19 96h109q15 -91 52 -143q-47 14 -94.5 55.5t-66.5 87.5z" />
    <glyph glyph-name="filter-secondary" unicode="&#x10f0b0;" horiz-adv-x="512" 
d="M505 407l-185 -185v-262q0 -15 -13 -21.5t-25 1.5l-80 56q-10 8 -10 20v206l-185 185q-11 11 -5 26t22 15h464q16 0 22 -15t-5 -26z" />
    <glyph glyph-name="smile-secondary" unicode="&#x10f118;" 
d="M248 440q103 0 175.5 -72.5t72.5 -175.5t-72.5 -175.5t-175.5 -72.5t-175.5 72.5t-72.5 175.5t72.5 175.5t175.5 72.5zM328 272q-13 0 -22.5 -9.5t-9.5 -22.5t9.5 -22.5t22.5 -9.5t22.5 9.5t9.5 22.5t-9.5 22.5t-22.5 9.5zM168 272q-13 0 -22.5 -9.5t-9.5 -22.5
t9.5 -22.5t22.5 -9.5t22.5 9.5t9.5 22.5t-9.5 22.5t-22.5 9.5zM363 102q4 4 4 9.5t-3 9t-7.5 6t-9.5 1.5t-9 -6q-14 -17 -40.5 -29.5t-49.5 -12.5t-49.5 12.5t-40.5 29.5q-4 5 -9 6t-9.5 -1.5t-7.5 -6t-3 -9t4 -9.5q19 -22 52.5 -38t62.5 -16t62.5 16t52.5 38z" />
    <glyph glyph-name="frown-secondary" unicode="&#x10f119;" 
d="M248 440q103 0 175.5 -72.5t72.5 -175.5t-72.5 -175.5t-175.5 -72.5t-175.5 72.5t-72.5 175.5t72.5 175.5t175.5 72.5zM328 272q-13 0 -22.5 -9.5t-9.5 -22.5t9.5 -22.5t22.5 -9.5t22.5 9.5t9.5 22.5t-9.5 22.5t-22.5 9.5zM168 272q-13 0 -22.5 -9.5t-9.5 -22.5
t9.5 -22.5t22.5 -9.5t22.5 9.5t9.5 22.5t-9.5 22.5t-22.5 9.5zM338 54q7 -8 16 -6t11.5 10t-2.5 16q-19 22 -52.5 38t-62.5 16t-62.5 -15.5t-52.5 -38.5q-6 -7 -2.5 -15.5t12 -10t15.5 5.5q14 17 40.5 29.5t49.5 12.5q15 0 32.5 -5.5t33 -15.5t24.5 -21z" />
    <glyph glyph-name="meh-secondary" unicode="&#x10f11a;" 
d="M248 440q103 0 175.5 -72.5t72.5 -175.5t-72.5 -175.5t-175.5 -72.5t-175.5 72.5t-72.5 175.5t72.5 175.5t175.5 72.5zM168 272q-13 0 -22.5 -9.5t-9.5 -22.5t9.5 -22.5t22.5 -9.5t22.5 9.5t9.5 22.5t-9.5 22.5t-22.5 9.5zM344 80q16 0 16 16t-16 16h-192q-16 0 -16 -16
t16 -16h192zM328 208q13 0 22.5 9.5t9.5 22.5t-9.5 22.5t-22.5 9.5t-22.5 -9.5t-9.5 -22.5t9.5 -22.5t22.5 -9.5z" />
    <glyph glyph-name="level-up-secondary" unicode="&#x10f148;" horiz-adv-x="352" 
d="M68 16h84v293l40 43l40 -43v-349q0 -10 -7 -17t-17 -7h-196q-5 0 -8.5 3.5t-3.5 8.5t4 8l56 56q3 4 8 4z" />
    <glyph glyph-name="compass-secondary" unicode="&#x10f14e;" 
d="M248 440q103 0 175.5 -72.5t72.5 -175.5t-72.5 -175.5t-175.5 -72.5t-175.5 72.5t-72.5 175.5t72.5 175.5t175.5 72.5zM374 292q6 12 -4 22t-22 4l-144 -66q-11 -5 -16 -16l-66 -144q-6 -12 4 -22t22 -4l144 66q11 5 16 16z" />
    <glyph glyph-name="dollar-sign-secondary" unicode="&#x10f155;" horiz-adv-x="288" 
d="M176 384h-64v48q0 7 4.5 11.5t11.5 4.5h32q7 0 11.5 -4.5t4.5 -11.5v-48zM112 0h64v-48q0 -7 -4.5 -11.5t-11.5 -4.5h-32q-7 0 -11.5 4.5t-4.5 11.5v48z" />
    <glyph glyph-name="moon-secondary" unicode="&#x10f186;" horiz-adv-x="512" 
 />
    <glyph glyph-name="university-secondary" unicode="&#x10f19c;" horiz-adv-x="512" 
d="M160 256v-192h64v192h64v-192h64v192h64v-192h36q12 0 12 -12v-20h-416v20q0 12 12 12h36v192h64z" />
    <glyph glyph-name="wifi-secondary" unicode="&#x10f1eb;" horiz-adv-x="640" 
 />
    <glyph glyph-name="ship-secondary" unicode="&#x10f21a;" horiz-adv-x="640" 
d="M594 0q6 -1 10 -5.5t4 -10.5v-32q0 -4 -2.5 -8t-6 -6t-8.5 -2q-42 4 -79 26q-41 -26 -95 -26t-97 26q-41 -26 -95 -26t-97 26q-35 -22 -79 -26q-7 -1 -12 4t-5 12v32q0 6 4 10.5t10 5.5q33 4 57 22q11 9 24 10t23 -8q29 -23 73 -23.5t73 22.5q10 8 23 9t23 -7
q29 -24 73.5 -24.5t72.5 22.5q11 8 24.5 8t23.5 -8q25 -19 58 -23zM192 320v-88l-64 -20v140q0 13 9.5 22.5t22.5 9.5h64v40q0 10 7 17t17 7h144q10 0 17 -7t7 -17v-40h64q13 0 22.5 -9.5t9.5 -22.5v-140l-64 20v88h-256z" />
    <glyph glyph-name="venus-secondary" unicode="&#x10f221;" horiz-adv-x="288" 
d="M144 192q-33 0 -56.5 23.5t-23.5 56.5t23.5 56.5t56.5 23.5t56.5 -23.5t23.5 -56.5t-23.5 -56.5t-56.5 -23.5z" />
    <glyph glyph-name="genderless-secondary" unicode="&#x10f22d;" horiz-adv-x="288" 
d="M144 112q-33 0 -56.5 23.5t-23.5 56.5t23.5 56.5t56.5 23.5t56.5 -23.5t23.5 -56.5t-23.5 -56.5t-56.5 -23.5z" />
    <glyph glyph-name="user-circle-secondary" unicode="&#x10f2bd;" 
d="M248 440q103 0 175.5 -72.5t72.5 -175.5t-72.5 -175.5t-175.5 -72.5t-175.5 72.5t-72.5 175.5t72.5 175.5t175.5 72.5zM248 344q-36 0 -62 -26t-26 -62t26 -62t62 -26t62 26t26 62t-26 62t-62 26zM248 0q37 0 80 20t66 48q-14 27 -40 43.5t-58 16.5q-4 0 -7 -1
q-20 -7 -41 -7t-41 7q-3 1 -7 1q-32 0 -58 -16.5t-40 -43.5q23 -28 66 -48t80 -20z" />
    <glyph glyph-name="usd-circle-secondary" unicode="&#x10f2e8;" 
d="M248 440q103 0 175.5 -72.5t72.5 -175.5t-72.5 -175.5t-175.5 -72.5t-175.5 72.5t-72.5 175.5t72.5 175.5t175.5 72.5zM272 64q28 0 48 21t20 50q0 24 -13.5 43t-35.5 26l-72 22q-15 5 -15 23q0 6 2.5 11.5t7.5 8.5t10 3h45q11 0 20 -5q11 -7 20 1l12 12q5 5 4.5 12.5
t-7.5 12.5q-21 14 -46 15v16q0 7 -4.5 11.5t-11.5 4.5h-16q-7 0 -11.5 -4.5t-4.5 -11.5v-16q-28 0 -48 -21t-20 -50q0 -24 13.5 -43t35.5 -26l72 -22q15 -5 15 -23q0 -9 -6 -16t-14 -7h-45q-11 0 -20 5q-11 7 -20 -1l-12 -12q-5 -5 -4.5 -12.5t7.5 -12.5q21 -14 46 -15v-16
q0 -7 4.5 -11.5t11.5 -4.5h16q7 0 11.5 4.5t4.5 11.5v16z" />
    <glyph glyph-name="scrubber-secondary" unicode="&#x10f2f8;" 
d="M248 440q103 0 175.5 -72.5t72.5 -175.5t-72.5 -175.5t-175.5 -72.5t-175.5 72.5t-72.5 175.5t72.5 175.5t175.5 72.5zM248 128q26 0 45 19t19 45t-19 45t-45 19t-45 -19t-19 -45t19 -45t45 -19z" />
    <glyph glyph-name="arrow-alt-down-secondary" unicode="&#x10f354;" horiz-adv-x="448" 
d="M288 392v-200h-128v200q0 10 7 17t17 7h80q10 0 17 -7t7 -17z" />
    <glyph glyph-name="arrow-alt-up-secondary" unicode="&#x10f357;" horiz-adv-x="448" 
d="M160 -8v200h128v-200q0 -10 -7 -17t-17 -7h-80q-10 0 -17 7t-7 17z" />
    <glyph glyph-name="baseball-ball-secondary" unicode="&#x10f433;" 
d="M442 347q22 -28 38 -73.5t16 -81.5t-16 -81t-38 -73q-27 25 -44 59l-28 -14q19 -39 51 -69q-72 -70 -172.5 -70t-172.5 70q32 30 51 70l-29 14q-16 -35 -44 -61q-22 28 -38 73.5t-16 81.5t16 81t38 73q27 -25 44 -59l28 14q-19 39 -51 69q72 70 172.5 70t172.5 -70
q-32 -30 -51 -70l29 -14q16 35 44 61zM139 114q13 37 13 77v1q0 41 -13 80l-31 -11q12 -34 12 -70q0 -34 -11 -67zM357 112l31 11q-12 34 -12 69t11 68l-30 11q-13 -38 -13 -79t13 -80z" />
    <glyph glyph-name="basketball-ball-secondary" unicode="&#x10f434;" 
d="M216 438v-1q0 -32 -15 -73t-37 -66l-80 80q12 10 28.5 20.5t34 18t36 13.5t33.5 8zM187 276q25 28 43 75.5t18 85.5v1v2q39 0 87 -18t77 -44l-164 -163zM280 -54v1q0 32 15 73t37 66l80 -80q-24 -21 -62.5 -38.5t-69.5 -21.5zM434 356q26 -29 44 -77t18 -87h-2h-1
q-38 0 -85.5 -18t-75.5 -43l-61 61zM434 28l-80 80q25 22 66 37t73 15h1q-4 -31 -21.5 -69.5t-38.5 -62.5zM309 108q-25 -28 -43 -75.5t-18 -85.5v-1v-2q-39 0 -87 18t-77 44l164 163zM62 356l80 -80q-25 -22 -66 -37t-73 -15h-1q4 31 21.5 69.5t38.5 62.5zM164 253l61 -61
l-163 -164q-26 29 -44 77t-18 87h2h1q38 0 85.5 18t75.5 43z" />
    <glyph glyph-name="bowling-ball-secondary" unicode="&#x10f436;" 
d="M232 208q-13 0 -22.5 9.5t-9.5 22.5t9.5 22.5t22.5 9.5t22.5 -9.5t9.5 -22.5t-9.5 -22.5t-22.5 -9.5zM216 384q13 0 22.5 -9.5t9.5 -22.5t-9.5 -22.5t-22.5 -9.5t-22.5 9.5t-9.5 22.5t9.5 22.5t22.5 9.5zM120 256q-13 0 -22.5 9.5t-9.5 22.5t9.5 22.5t22.5 9.5t22.5 -9.5
t9.5 -22.5t-9.5 -22.5t-22.5 -9.5z" />
    <glyph glyph-name="football-ball-secondary" unicode="&#x10f44e;" 
d="M0 120q0 30 6 60l230 -230q-30 -6 -60 -6h-2l-174 174v2zM496 266v-2q0 -30 -6 -60l-230 230q30 6 60 6h2z" />
    <glyph glyph-name="tennis-ball-secondary" unicode="&#x10f45e;" 
d="M267 370q1 -35 -15 -72.5t-44 -65.5t-65.5 -44t-72.5 -15q-10 0 -19 -1.5t-20 -6t-16.5 -16.5t-3.5 -29q-11 35 -11 72v11q29 20 71 18q58 -1 104 46t44 102q-1 42 18 71h11q37 0 72 -11q-14 2 -24.5 -2t-16 -10.5t-8.5 -15.5t-3.5 -16t-0.5 -15zM485 264q11 -35 11 -72
v-11q-29 -19 -71 -18q-55 2 -102.5 -44.5t-45.5 -103.5q1 -42 -18 -71h-11q-37 0 -72 11q17 -2 29 4t16.5 16.5t6 19.5t1.5 19q-1 35 15 72.5t44 65.5t65.5 44.5t72.5 14.5q10 0 19 1.5t20 6t16.5 16.5t3.5 29z" />
    <glyph glyph-name="heart-circle-secondary" unicode="&#x10f4c7;" 
d="M248 440q103 0 175.5 -72.5t72.5 -175.5t-72.5 -175.5t-175.5 -72.5t-175.5 72.5t-72.5 175.5t72.5 175.5t175.5 72.5zM372 168q24 25 22.5 60.5t-28.5 57.5q-24 20 -54.5 17.5t-52.5 -24.5l-11 -12l-11 12q-22 22 -52.5 24.5t-54.5 -17.5q-27 -22 -28.5 -58t22.5 -60
l111 -114q0 -1 1 -1q5 -5 12 -5q8 0 13 6z" />
    <glyph glyph-name="smile-wink-secondary" unicode="&#x10f4da;" 
d="M248 440q103 0 175.5 -72.5t72.5 -175.5t-72.5 -175.5t-175.5 -72.5t-175.5 72.5t-72.5 175.5t72.5 175.5t175.5 72.5zM168 272q-13 0 -22.5 -9.5t-9.5 -22.5t9.5 -22.5t22.5 -9.5t22.5 9.5t9.5 22.5t-9.5 22.5t-22.5 9.5zM363 102q10 12 -2.5 22t-22.5 -2
q-14 -17 -40.5 -29.5t-49.5 -12.5t-49.5 12.5t-40.5 29.5q-7 8 -16 6t-11.5 -10t2.5 -16q19 -22 52.5 -38t62.5 -16t62.5 15.5t52.5 38.5zM368 215q6 -6 13.5 -2t6.5 13t-7 17t-14.5 13.5t-18.5 8.5t-20 3q-20 0 -38.5 -12t-21.5 -30q-1 -9 6.5 -13t13.5 2l10 9q11 9 30 9
t30 -9z" />
    <glyph glyph-name="wine-glass-secondary" unicode="&#x10f4e3;" horiz-adv-x="288" 
d="M208 194q-7 -10 -20.5 -19t-25.5 -11q-9 -2 -18 -2t-17 2q-13 2 -26.5 11t-20.5 19q-16 22 -16 48v8l12 134h136l12 -134v-8q0 -26 -16 -48z" />
    <glyph glyph-name="compact-disc-secondary" unicode="&#x10f51f;" 
d="M248 440q103 0 175.5 -72.5t72.5 -175.5t-72.5 -175.5t-175.5 -72.5t-175.5 72.5t-72.5 175.5t72.5 175.5t175.5 72.5zM88 192q0 66 47 113t113 47v32q-79 0 -135.5 -56.5t-56.5 -135.5h32zM248 96q40 0 68 28t28 68t-28 68t-68 28t-68 -28t-28 -68t28 -68t68 -28z" />
    <glyph glyph-name="store-secondary" unicode="&#x10f54e;" horiz-adv-x="616" 
d="M548 161q8 1 16 4v-197q0 -13 -9.5 -22.5t-22.5 -9.5h-448q-13 0 -22.5 9.5t-9.5 22.5v197q8 -3 16 -4q9 -1 18 -1q15 0 30 4v-100h384v100q15 -4 30 -4q9 0 18 1z" />
    <glyph glyph-name="angry-secondary" unicode="&#x10f556;" 
d="M248 440q103 0 175.5 -72.5t72.5 -175.5t-72.5 -175.5t-175.5 -72.5t-175.5 72.5t-72.5 175.5t72.5 175.5t175.5 72.5zM136 208q0 -13 9.5 -22.5t22.5 -9.5t22.5 9.5t9.5 22.5q0 4 -1 8h1q7 0 11.5 4.5t4.5 11.5q0 12 -11 15l-80 24q-3 1 -5 1q-7 0 -11.5 -4.5
t-4.5 -11.5q0 -12 11 -15l31 -10q-10 -9 -10 -23zM304 54q7 -8 16 -5.5t12 10t-3 15.5q-13 16 -37 27t-44 11t-44 -11t-37 -27q-4 -4 -4 -9.5t3 -9t7 -6t9.5 -1.5t9.5 6q21 25 56 25t56 -25zM382 241q11 3 11 15q0 7 -4.5 11.5t-11.5 4.5q-2 0 -5 -1l-80 -24q-11 -3 -11 -15
q0 -7 4.5 -11.5t11.5 -4.5q-1 -4 -1 -8q0 -13 9.5 -22.5t22.5 -9.5t22.5 9.5t9.5 22.5q0 14 -10 23z" />
    <glyph glyph-name="dizzy-secondary" unicode="&#x10f567;" 
d="M248 440q103 0 175.5 -72.5t72.5 -175.5t-72.5 -175.5t-175.5 -72.5t-175.5 72.5t-72.5 175.5t72.5 175.5t175.5 72.5zM152 233l29 -28q7 -7 15.5 -4t11 10.5t-4.5 15.5l-28 29l28 29q5 4 5.5 9t-2.5 9t-7 7t-9 2.5t-9 -5.5l-29 -28l-29 28q-7 7 -15.5 4t-11 -10.5
t4.5 -15.5l28 -29l-28 -29q-7 -7 -4.5 -15.5t10.5 -10.5t16 4zM248 32q26 0 45 19t19 45t-19 45t-45 19t-45 -19t-19 -45t19 -45t45 -19zM373 205q7 -7 15.5 -4t11 10.5t-4.5 15.5l-28 29l28 29q7 7 4 15.5t-10.5 11t-15.5 -4.5l-29 -28l-29 28q-7 7 -15.5 4t-11 -10.5
t4.5 -15.5l28 -29l-28 -29q-7 -7 -4.5 -15.5t10.5 -10.5t16 4l29 28z" />
    <glyph glyph-name="flushed-secondary" unicode="&#x10f579;" 
d="M248 440q103 0 175.5 -72.5t72.5 -175.5t-72.5 -175.5t-175.5 -72.5t-175.5 72.5t-72.5 175.5t72.5 175.5t175.5 72.5zM80 224q0 -30 21 -51t51 -21t51 21t21 51t-21 51t-51 21t-51 -21t-21 -51zM312 48q16 0 16 16t-16 16h-128q-16 0 -16 -16t16 -16h128zM344 152
q30 0 51 21t21 51t-21 51t-51 21t-51 -21t-21 -51t21 -51t51 -21z" />
    <glyph glyph-name="frown-open-secondary" unicode="&#x10f57a;" 
d="M248 440q103 0 175.5 -72.5t72.5 -175.5t-72.5 -175.5t-175.5 -72.5t-175.5 72.5t-72.5 175.5t72.5 175.5t175.5 72.5zM136 240q0 -13 9.5 -22.5t22.5 -9.5t22.5 9.5t9.5 22.5t-9.5 22.5t-22.5 9.5t-22.5 -9.5t-9.5 -22.5zM323 57q3 -1 5 -1q7 0 11.5 4.5t4.5 11.5v3
q-5 27 -35.5 44t-60.5 17q-19 0 -39 -6.5t-37 -21t-20 -33.5v-3q0 -7 4.5 -11.5t11.5 -4.5q2 0 5 1q49 15 75 15t75 -15zM328 208q13 0 22.5 9.5t9.5 22.5t-9.5 22.5t-22.5 9.5t-22.5 -9.5t-9.5 -22.5t9.5 -22.5t22.5 -9.5z" />
    <glyph glyph-name="globe-africa-secondary" unicode="&#x10f57c;" 
d="M491 240q5 -24 5 -48q0 -103 -72.5 -175.5t-175.5 -72.5t-175.5 72.5t-72.5 175.5t72.5 175.5t175.5 72.5q16 0 32 -2v-70q0 -7 -4.5 -11.5t-10.5 -4.5h-25q-8 0 -13 -7l-8 -12q-3 -5 -9 -6l-14 -4q-12 -3 -12 -15v-4q0 -5 2 -8.5t5.5 -5.5t7.5 -2h90h1q6 0 10 -5l7 -6
q5 -5 11 -5h10q7 0 11.5 -4.5t4.5 -11.5q0 -11 -11 -14l-47 -16q-2 -1 -5 -1t-7 2l-14 7q-12 6 -25 6h-1q-18 0 -33 -11l-27 -21q-6 -4 -11 -11.5t-8 -16t-3 -15.5v-14q0 -23 16 -39t39 -16h25q7 0 11.5 -4.5t4.5 -11.5v-29q0 -19 8 -36q8 -15 25 -15q15 0 23 12l13 20
q11 16 25 29q4 4 5 9l4 22q1 4 3 7l19 25q3 4 3 9v11q0 7 -4.5 11.5t-11.5 4.5h-8q-8 0 -13 7l-13 20q-1 1 -2 3v5q0 12 10 15l3 1q2 1 5 1q4 0 8 -3l18 -12q4 -3 9 -3q4 0 7 2l15 8q9 4 9 14v6q0 7 4.5 11.5t11.5 4.5h67z" />
    <glyph glyph-name="globe-americas-secondary" unicode="&#x10f57d;" 
d="M490 136q-20 -84 -87.5 -138t-154.5 -54q-103 0 -175.5 72.5t-72.5 175.5q0 37 16.5 83t39.5 74v-46q0 -15 9 -28q25 -38 35 -52q8 -12 18 -21l1 -1q14 -13 32 -22t49 -26q16 -9 16 -28v-32q0 -13 9 -22q11 -11 17.5 -26.5t5.5 -25.5v-29q0 -4 1.5 -8t4.5 -6.5t7 -4.5
t8 -2h2q3 1 6 1q14 2 17 16l14 58q1 2 5 16q1 7 6 11l11 11q14 14 14 33v0q0 13 -9 22l-14 14q-9 9 -22 9h-67q-4 2 -15 17t-17 15q-16 0 -30 7l-11 6q-7 3 -7 10q0 9 8 12l31 10q3 1 5 1q6 0 11 -4l9 -8q2 -2 5 -2h6q8 0 8 8q0 2 -1 4l-15 31q-1 1 -1 3q0 4 2 6l10 10
q2 2 6 2h9q3 0 5 2l8 8q3 3 3 6t-3 6l-4 4q-3 3 -3 6t3 6l10 10l5 5q4 4 4 11t-4 11l-25 25q-3 3 -8 3h-1h-8q-11 -1 -11 -13t-12 -15q-2 -1 -4 -1q-4 0 -7 2q-9 4 -16 11l-41 38q22 11 54.5 19t57.5 8q77 0 139.5 -42.5t90.5 -111.5l-37 -3q-14 -2 -27 -8q-6 -3 -10 -8
l-19 -30q-4 -6 -4 -13t4 -13l18 -27q4 -6 10 -9l21 -10z" />
    <glyph glyph-name="globe-asia-secondary" unicode="&#x10f57e;" 
d="M312 432q80 -22 132 -88.5t52 -151.5q0 -103 -72.5 -175.5t-175.5 -72.5q-94 0 -164 62t-82 154h111q7 0 12 5l19 19l2 2q2 1 4 1q5 0 7 -5l23 -45q4 -9 14 -9h6q7 0 11.5 4.5t4.5 11.5v9q0 7 -5 12l-5 5q-3 3 -3 6t3 6l5 5q5 5 12 5v0q9 0 14 8l17 29q1 2 4 2
q1 0 2 -0.5t2 -2.5q2 -4 7 -4h3q8 0 8 8v78q0 10 -9 14l-11 6q-4 2 -4 7q0 4 3 7l42 31q11 8 11 22v35zM408 90v24q0 7 -5 11l-12 12q-2 3 -2 6v13q0 4 -4 4h-6q-3 0 -4 -3l-4 -14q-1 -3 -4 -3h-4q-2 0 -3 2l-6 13q-2 5 -7 5h-12q-3 0 -5 -1l-24 -17q-2 -2 -5 -3l-39 -16
q-5 -2 -5 -8v-10q0 -3 2 -5l12 -12q4 -5 11 -5h10h4l21 6q4 1 7 1q11 0 19 -8l13 -13q5 -5 11 -5h15q7 0 12 5l9 9q5 5 5 12z" />
    <glyph glyph-name="grimace-secondary" unicode="&#x10f57f;" 
d="M248 440q103 0 175.5 -72.5t72.5 -175.5t-72.5 -175.5t-175.5 -72.5t-175.5 72.5t-72.5 175.5t72.5 175.5t175.5 72.5zM144 48v40h-40v-8q0 -13 9.5 -22.5t22.5 -9.5h8zM144 104v40h-8q-13 0 -22.5 -9.5t-9.5 -22.5v-8h40zM136 240q0 -13 9.5 -22.5t22.5 -9.5t22.5 9.5
t9.5 22.5t-9.5 22.5t-22.5 9.5t-22.5 -9.5t-9.5 -22.5zM208 48v40h-48v-40h48zM208 104v40h-48v-40h48zM272 48v40h-48v-40h48zM272 104v40h-48v-40h48zM336 48v40h-48v-40h48zM336 104v40h-48v-40h48zM328 208q13 0 22.5 9.5t9.5 22.5t-9.5 22.5t-22.5 9.5t-22.5 -9.5
t-9.5 -22.5t9.5 -22.5t22.5 -9.5zM392 80v8h-40v-40h8q13 0 22.5 9.5t9.5 22.5zM392 104v8q0 13 -9.5 22.5t-22.5 9.5h-8v-40h40z" />
    <glyph glyph-name="grin-secondary" unicode="&#x10f580;" 
d="M248 440q103 0 175.5 -72.5t72.5 -175.5t-72.5 -175.5t-175.5 -72.5t-175.5 72.5t-72.5 175.5t72.5 175.5t175.5 72.5zM328 272q-13 0 -22.5 -9.5t-9.5 -22.5t9.5 -22.5t22.5 -9.5t22.5 9.5t9.5 22.5t-9.5 22.5t-22.5 9.5zM168 272q-13 0 -22.5 -9.5t-9.5 -22.5
t9.5 -22.5t22.5 -9.5t22.5 9.5t9.5 22.5t-9.5 22.5t-22.5 9.5zM392 109q1 9 -5.5 15t-15.5 3q-47 -15 -123 -15t-123 15q-3 1 -5 1q-7 0 -11.5 -4.5t-4.5 -11.5v-3q7 -39 51.5 -66t92.5 -27t92.5 27t51.5 66z" />
    <glyph glyph-name="grin-alt-secondary" unicode="&#x10f581;" 
d="M248 440q103 0 175.5 -72.5t72.5 -175.5t-72.5 -175.5t-175.5 -72.5t-175.5 72.5t-72.5 175.5t72.5 175.5t175.5 72.5zM312 311q-15 -22 -16 -55q1 -34 16 -55q6 -9 16.5 -9t15.5 9q15 22 16 55q-1 34 -16 55q-5 9 -15.5 9t-16.5 -9zM152 311q-15 -22 -16 -55
q1 -34 16 -55q6 -9 16.5 -9t15.5 9q15 22 16 55q-1 34 -16 55q-5 9 -15.5 9t-16.5 -9zM392 109v3q0 7 -4.5 11.5t-11.5 4.5q-2 0 -5 -1q-47 -15 -123 -15t-123 15q-3 1 -5 1q-7 0 -11.5 -4.5t-4.5 -11.5v-3q7 -39 51.5 -66t92.5 -27t92.5 27t51.5 66z" />
    <glyph glyph-name="grin-beam-secondary" unicode="&#x10f582;" 
d="M248 440q103 0 175.5 -72.5t72.5 -175.5t-72.5 -175.5t-175.5 -72.5t-175.5 72.5t-72.5 175.5t72.5 175.5t175.5 72.5zM272 225q0 -7 6 -8.5t9 3.5l10 17q12 22 31 22t32 -22l9 -17q3 -5 9.5 -3.5t5.5 8.5q-2 30 -19.5 50.5t-36.5 20.5t-36.5 -20.5t-19.5 -50.5zM112 225
q0 -7 6 -8.5t9 3.5l10 17q12 22 31 22t32 -22l9 -17q3 -5 9.5 -3.5t5.5 8.5q-1 12 -5 23t-9.5 20t-12.5 15t-14.5 9.5t-14.5 3.5q-19 0 -36.5 -20.5t-19.5 -50.5zM392 109v3q0 7 -4.5 11.5t-11.5 4.5q-2 0 -5 -1q-47 -15 -123 -15t-123 15q-3 1 -5 1q-7 0 -11.5 -4.5
t-4.5 -11.5v-3q7 -39 51.5 -66t92.5 -27t92.5 27t51.5 66z" />
    <glyph glyph-name="grin-beam-sweat-secondary" unicode="&#x10f583;" horiz-adv-x="504" 
d="M456 288q10 0 20 3q20 -48 20 -99q0 -103 -72.5 -175.5t-175.5 -72.5t-175.5 72.5t-72.5 175.5t72.5 175.5t175.5 72.5q31 0 70.5 -12t65.5 -29q-8 -18 -8 -32q0 -33 23.5 -56t56.5 -23zM272 225q0 -7 6 -8.5t9 3.5l10 17q12 22 31 22t32 -22l9 -17q3 -6 9.5 -4t5.5 9
q-2 30 -19.5 50.5t-36.5 20.5t-36.5 -20.5t-19.5 -50.5zM112 225q0 -7 6 -8.5t9 3.5l10 17q12 22 31 22t32 -22l9 -17q3 -6 9.5 -4t5.5 9q-2 30 -19.5 50.5t-36.5 20.5t-36.5 -20.5t-19.5 -50.5zM392 109v3q0 7 -4.5 11.5t-11.5 4.5q-3 0 -5 -1q-47 -15 -123 -15t-123 15
q-3 1 -5 1q-7 0 -11.5 -4.5t-4.5 -11.5v-3q7 -39 51.5 -66t92.5 -27t92.5 27t51.5 66z" />
    <glyph glyph-name="grin-hearts-secondary" unicode="&#x10f584;" 
d="M248 440q103 0 175.5 -72.5t72.5 -175.5t-72.5 -175.5t-175.5 -72.5t-175.5 72.5t-72.5 175.5t72.5 175.5t175.5 72.5zM90 264q0 -2 -1 -4q-1 -4 -1 -8q0 -8 3.5 -15t9.5 -12.5t14 -7.5l70 -18h2q7 0 8 6l20 70q0 2 1 4v5q0 13 -9 23.5t-21 11.5q-14 3 -26 -5.5
t-16 -21.5l-2 -8l-7 2q-14 4 -27 -2.5t-18 -19.5zM392 109v3q0 4 -2 8t-6 6t-8 2q-3 0 -5 -1q-47 -15 -123 -15t-123 15q-3 1 -5 1q-7 0 -11.5 -4.5t-4.5 -11.5v-3q7 -39 51.5 -66t92.5 -27t92.5 27t51.5 66zM381 217l4 2q10 3 16.5 13t6.5 20q0 6 -2 12q-4 9 -11 15
t-16 7.5t-18 -0.5l-7 -2l-2 8q-4 13 -16 21.5t-26 6.5q-2 -1 -4 -1q-7 -2 -13 -7.5t-9.5 -12.5t-3.5 -14q0 -5 1 -10l20 -70q2 -6 8 -6h2z" />
    <glyph glyph-name="grin-squint-secondary" unicode="&#x10f585;" 
d="M248 440q103 0 175.5 -72.5t72.5 -175.5t-72.5 -175.5t-175.5 -72.5t-175.5 72.5t-72.5 175.5t72.5 175.5t175.5 72.5zM282 250q-6 -3 -6 -10t6 -10l80 -48q8 -5 15 2.5t0 15.5l-33 40l33 40q3 4 3 8.5t-3 7.5t-7 4t-8 -2zM134 298q-8 5 -15 -2.5t0 -15.5l33 -40l-33 -40
q-7 -8 0 -15.5t15 -2.5l80 48q6 3 6 10t-6 10zM392 109v3q0 7 -4.5 11.5t-11.5 4.5q-3 0 -5 -1q-47 -15 -123 -15t-123 15q-3 1 -5 1q-7 0 -11.5 -4.5t-4.5 -11.5v-3q7 -39 51.5 -66t92.5 -27t92.5 27t51.5 66z" />
    <glyph glyph-name="grin-stars-secondary" unicode="&#x10f587;" 
d="M248 440q103 0 175.5 -72.5t72.5 -175.5t-72.5 -175.5t-175.5 -72.5t-175.5 72.5t-72.5 175.5t72.5 175.5t175.5 72.5zM95 279q-7 -1 -7 -8q0 -3 2 -5l26 -25l-6 -35v-1q0 -8 7 -8q2 0 4 1l31 17l31 -17h4q7 0 7 7v1l-6 35l26 25q2 2 2 5q0 7 -7 8l-35 5l-15 32
q-2 4 -7 4t-7 -4l-15 -32zM392 109v3q0 7 -4.5 11.5t-11.5 4.5q-2 0 -5 -1q-47 -15 -123 -15t-123 15q-2 1 -5 1q-7 0 -11.5 -4.5t-4.5 -11.5v-3q7 -39 51.5 -66t92.5 -27t92.5 27t51.5 66zM406 266q2 2 2 5q0 7 -7 8l-35 5l-15 32q-2 4 -7 4t-7 -4l-15 -32l-35 -5
q-7 -1 -7 -8q0 -3 2 -5l26 -25l-6 -35v-1q0 -8 7 -8q2 0 4 1l31 17l31 -17h4q7 0 7 7v1l-6 35z" />
    <glyph glyph-name="grin-tongue-secondary" unicode="&#x10f589;" 
d="M248 440q103 0 175.5 -72.5t72.5 -175.5q0 -79 -44.5 -142t-116.5 -90q9 19 9 40v45q42 28 48 64v3q0 3 -1.5 6t-3.5 5t-5 3.5t-6 1.5t-5 -1q-47 -15 -123 -15t-123 15q-2 1 -5 1q-7 0 -11.5 -5t-4.5 -11v-3q6 -36 48 -64v-45q0 -21 9 -40q-72 27 -116.5 90t-44.5 142
q0 103 72.5 175.5t175.5 72.5zM168 208q13 0 22.5 9.5t9.5 22.5t-9.5 22.5t-22.5 9.5t-22.5 -9.5t-9.5 -22.5t9.5 -22.5t22.5 -9.5zM328 208q13 0 22.5 9.5t9.5 22.5t-9.5 22.5t-22.5 9.5t-22.5 -9.5t-9.5 -22.5t9.5 -22.5t22.5 -9.5z" />
    <glyph glyph-name="grin-tongue-squint-secondary" unicode="&#x10f58a;" 
d="M248 440q103 0 175.5 -72.5t72.5 -175.5q0 -79 -44.5 -142t-116.5 -90q9 19 9 40v45q42 28 48 64v3q0 7 -4.5 11.5t-11.5 4.5q-2 0 -5 -1q-47 -15 -123 -15t-123 15q-3 1 -5 1q-7 0 -11.5 -4.5t-4.5 -11.5v-3q6 -36 48 -64v-45q0 -21 9 -40q-72 27 -116.5 90t-44.5 142
q0 103 72.5 175.5t175.5 72.5zM214 230q3 1 4 4q2 3 2 6q0 7 -6 10l-80 48q-8 5 -15 -2.5t0 -15.5l33 -40l-33 -40q-7 -8 0 -15.5t15 -2.5zM362 182q8 -5 15 2.5t0 15.5l-33 40l33 40q7 8 0.5 15.5t-15.5 2.5l-80 -48q-6 -3 -6 -10t6 -10z" />
    <glyph glyph-name="grin-tongue-wink-secondary" unicode="&#x10f58b;" 
d="M248 440q67 0 124.5 -33t90.5 -90.5t33 -124.5q0 -79 -44.5 -142t-116.5 -90q9 19 9 40v45q42 28 48 64v3q0 7 -4.5 11.5t-11.5 4.5q-2 0 -5 -1q-47 -15 -123 -15t-123 15q-2 1 -5 1q-7 0 -11.5 -5t-4.5 -11v-3q6 -36 48 -64v-45q0 -21 9 -40q-72 27 -116.5 90t-44.5 142
q0 103 72.5 175.5t175.5 72.5zM192 215q6 -6 13.5 -2t6.5 13q-3 18 -21.5 30t-38.5 12t-38.5 -12t-21.5 -30q-1 -9 6.5 -13t13.5 2l10 9q11 9 30 9t30 -9zM344 176q13 -13 32 -13t32 13t13 32t-13 32t-32 13t-32 -13t-13 -32t13 -32z" />
    <glyph glyph-name="grin-wink-secondary" unicode="&#x10f58c;" 
d="M248 440q103 0 175.5 -72.5t72.5 -175.5t-72.5 -175.5t-175.5 -72.5t-175.5 72.5t-72.5 175.5t72.5 175.5t175.5 72.5zM268 226q-1 -9 6.5 -13t13.5 2l10 9q11 9 30 9t30 -9l10 -9q6 -6 13.5 -1.5t6.5 12.5q-1 9 -7 17t-14.5 13.5t-18.5 8.5t-20 3q-20 0 -38.5 -12
t-21.5 -30zM168 272q-13 0 -22.5 -9.5t-9.5 -22.5t9.5 -22.5t22.5 -9.5t22.5 9.5t9.5 22.5t-9.5 22.5t-22.5 9.5zM392 109v3q0 7 -4.5 11.5t-11.5 4.5q-2 0 -5 -1q-47 -15 -123 -15t-123 15q-3 1 -5 1q-7 0 -11.5 -4.5t-4.5 -11.5v-3q7 -39 51.5 -66t92.5 -27t92.5 27
t51.5 66z" />
    <glyph glyph-name="kiss-secondary" unicode="&#x10f596;" 
d="M248 440q103 0 175.5 -72.5t72.5 -175.5t-72.5 -175.5t-175.5 -72.5t-175.5 72.5t-72.5 175.5t72.5 175.5t175.5 72.5zM168 208q13 0 22.5 9.5t9.5 22.5t-9.5 22.5t-22.5 9.5t-22.5 -9.5t-9.5 -22.5t9.5 -22.5t22.5 -9.5zM304 52q0 22 -35 36q35 14 35 36q0 10 -8.5 19.5
t-25.5 16.5t-38 8q-6 1 -7.5 -5.5t4.5 -9.5l17 -7q21 -9 21 -21.5t-21 -21.5l-17 -7q-5 -2 -5 -7.5t5 -7.5l17 -7q21 -9 21 -22t-21 -21l-17 -8q-6 -2 -4.5 -9t7.5 -6q31 2 51.5 15.5t20.5 28.5zM328 208q13 0 22.5 9.5t9.5 22.5t-9.5 22.5t-22.5 9.5t-22.5 -9.5t-9.5 -22.5
t9.5 -22.5t22.5 -9.5z" />
    <glyph glyph-name="kiss-beam-secondary" unicode="&#x10f597;" 
d="M248 440q103 0 175.5 -72.5t72.5 -175.5t-72.5 -175.5t-175.5 -72.5t-175.5 72.5t-72.5 175.5t72.5 175.5t175.5 72.5zM209 220q3 -6 9 -4t6 9q-2 30 -19.5 50.5t-36.5 20.5t-36.5 -20.5t-19.5 -50.5q0 -7 6 -8.5t9 3.5l9 17q13 22 32 22t32 -22zM304 52q0 22 -35 36
q35 14 35 36q0 10 -8.5 19.5t-25.5 16.5t-38 8q-6 1 -7.5 -5.5t4.5 -9.5l17 -7q21 -9 21 -21.5t-21 -21.5l-17 -7q-5 -2 -5 -7.5t5 -7.5l17 -7q21 -9 21 -22t-21 -21l-17 -8q-6 -2 -4.5 -9t7.5 -6q31 2 51.5 15.5t20.5 28.5zM369 220q3 -6 9 -4t6 9q-1 20 -10 36.5
t-21.5 25.5t-24.5 9q-19 0 -36.5 -20.5t-19.5 -50.5q0 -7 6 -8.5t9 3.5l9 17q13 22 32 22t32 -22z" />
    <glyph glyph-name="kiss-wink-heart-secondary" unicode="&#x10f598;" horiz-adv-x="504" 
d="M332 109q-11 -18 -11 -40q0 -10 3 -19q23 -84 23 -85q-47 -21 -99 -21q-103 0 -175.5 72.5t-72.5 175.5t72.5 175.5t175.5 72.5t175.5 -72.5t72.5 -175.5q0 -47 -17 -90q-9 3 -19 3q-21 37 -63 38t-65 -34zM168 208q13 0 22.5 9.5t9.5 22.5t-9.5 22.5t-22.5 9.5
t-22.5 -9.5t-9.5 -22.5t9.5 -22.5t22.5 -9.5zM288 52q0 22 -35 36q35 14 35 36q0 16 -20.5 29.5t-50.5 14.5q-7 1 -9 -5.5t5 -9.5l17 -7q21 -9 21 -21.5t-21 -21.5l-17 -7q-4 -2 -4.5 -7.5t4.5 -7.5l17 -7q21 -9 21 -22t-21 -21l-17 -8q-6 -2 -4.5 -9t8.5 -6q20 1 37 8
t25.5 16.5t8.5 19.5zM304 231l10 9q11 9 30.5 9t30.5 -9l9 -9q4 -3 8 -3q5 0 8.5 3.5t3.5 8.5v2q-1 9 -7 17t-14.5 13.5t-18.5 8.5t-20 3q-13 0 -26 -5t-22.5 -15t-11.5 -22q-1 -9 6.5 -13t13.5 2z" />
    <glyph glyph-name="laugh-secondary" unicode="&#x10f599;" 
d="M248 440q103 0 175.5 -72.5t72.5 -175.5t-72.5 -175.5t-175.5 -72.5t-175.5 72.5t-72.5 175.5t72.5 175.5t175.5 72.5zM328 288q-13 0 -22.5 -9.5t-9.5 -22.5t9.5 -22.5t22.5 -9.5t22.5 9.5t9.5 22.5t-9.5 22.5t-22.5 9.5zM168 288q-13 0 -22.5 -9.5t-9.5 -22.5
t9.5 -22.5t22.5 -9.5t22.5 9.5t9.5 22.5t-9.5 22.5t-22.5 9.5zM399 142v2q0 7 -4.5 11.5t-11.5 4.5h-270h-2q-6 -1 -10 -5.5t-4 -10.5v-2q7 -52 48.5 -89t94.5 -37h16q53 0 94.5 37t48.5 89z" />
    <glyph glyph-name="laugh-beam-secondary" unicode="&#x10f59a;" 
d="M248 440q103 0 175.5 -72.5t72.5 -175.5t-72.5 -175.5t-175.5 -72.5t-175.5 72.5t-72.5 175.5t72.5 175.5t175.5 72.5zM272 241q-1 -7 5.5 -8.5t9.5 3.5l10 17q12 22 31 22t32 -22l9 -17q3 -5 9.5 -3.5t5.5 8.5q-2 30 -19.5 50.5t-36.5 20.5q-12 0 -24 -9t-21 -25.5
t-11 -36.5zM112 241q-1 -7 5.5 -8.5t9.5 3.5l10 17q12 22 31 22t32 -22l9 -17q3 -5 9.5 -3.5t5.5 8.5q-1 12 -5 23t-9.5 20t-12.5 15t-14.5 9.5t-14.5 3.5q-12 0 -24 -9t-21 -25.5t-11 -36.5zM399 142v2q0 7 -4.5 11.5t-11.5 4.5h-270h-2q-6 -1 -10 -5.5t-4 -10.5v-2
q7 -52 48.5 -89t94.5 -37h16q53 0 94.5 37t48.5 89z" />
    <glyph glyph-name="laugh-squint-secondary" unicode="&#x10f59b;" 
d="M248 440q103 0 175.5 -72.5t72.5 -175.5t-72.5 -175.5t-175.5 -72.5t-175.5 72.5t-72.5 175.5t72.5 175.5t175.5 72.5zM282 278q-6 -3 -6 -10t6 -10l80 -48q8 -5 15 2.5t0 15.5l-33 40l33 40q3 4 3 8.5t-3 7.5t-7 4t-8 -2zM134 326q-8 5 -15 -2.5t0 -15.5l33 -40l-33 -40
q-7 -8 0 -15.5t15 -2.5l80 48q6 3 6 10t-6 10zM399 142v2q0 7 -4.5 11.5t-11.5 4.5h-270h-2q-6 -1 -10 -5.5t-4 -10.5v-2q7 -52 48.5 -89t94.5 -37h16q53 0 94.5 37t48.5 89z" />
    <glyph glyph-name="laugh-wink-secondary" unicode="&#x10f59c;" 
d="M248 440q103 0 175.5 -72.5t72.5 -175.5t-72.5 -175.5t-175.5 -72.5t-175.5 72.5t-72.5 175.5t72.5 175.5t175.5 72.5zM268 242v-2q0 -5 3.5 -8.5t8.5 -3.5t8 3l10 9q11 9 30 9t31 -9l9 -9q6 -6 13.5 -1.5t6.5 12.5q-2 12 -11.5 22t-22.5 15t-26 5q-20 0 -38.5 -12
t-21.5 -30zM168 288q-13 0 -22.5 -9.5t-9.5 -22.5t9.5 -22.5t22.5 -9.5t22.5 9.5t9.5 22.5t-9.5 22.5t-22.5 9.5zM399 142v2q0 7 -4.5 11.5t-11.5 4.5h-270h-2q-6 -1 -10 -5.5t-4 -10.5v-2q7 -52 48.5 -89t94.5 -37h16q53 0 94.5 37t48.5 89z" />
    <glyph glyph-name="meh-blank-secondary" unicode="&#x10f5a4;" 
d="M248 440q103 0 175.5 -72.5t72.5 -175.5t-72.5 -175.5t-175.5 -72.5t-175.5 72.5t-72.5 175.5t72.5 175.5t175.5 72.5zM168 208q13 0 22.5 9.5t9.5 22.5t-9.5 22.5t-22.5 9.5t-22.5 -9.5t-9.5 -22.5t9.5 -22.5t22.5 -9.5zM328 208q13 0 22.5 9.5t9.5 22.5t-9.5 22.5
t-22.5 9.5t-22.5 -9.5t-9.5 -22.5t9.5 -22.5t22.5 -9.5z" />
    <glyph glyph-name="meh-rolling-eyes-secondary" unicode="&#x10f5a5;" 
d="M248 440q103 0 175.5 -72.5t72.5 -175.5t-72.5 -175.5t-175.5 -72.5t-175.5 72.5t-72.5 175.5t72.5 175.5t175.5 72.5zM88 224q0 -26 19 -45t45 -19t45 19t19 45t-19 45t-45 19t-45 -19t-19 -45zM312 48q16 0 16 16t-16 16h-128q-16 0 -16 -16t16 -16h128zM344 160
q26 0 45 19t19 45t-19 45t-45 19t-45 -19t-19 -45t19 -45t45 -19z" />
    <glyph glyph-name="sad-cry-secondary" unicode="&#x10f5b3;" 
d="M365 -27l3 2zM363 -28l-3 -1zM349 -35l2 2zM356 -31l-2 -1zM496 192q0 -58 -35 -120.5t-85 -92.5v1v180q0 7 -4.5 11.5t-11.5 4.5t-11.5 -4.5t-4.5 -11.5v-197q-46 -19 -96 -19t-96 19v197q0 7 -4.5 11.5t-11.5 4.5t-11.5 -4.5t-4.5 -11.5v-180q-50 29 -85 91.5
t-35 120.5q0 103 72.5 175.5t175.5 72.5t175.5 -72.5t72.5 -175.5zM192 215q4 -3 8 -3q5 0 8.5 3.5t3.5 8.5v2q-1 9 -7 17t-14.5 13.5t-18.5 8.5t-20 3q-20 0 -38.5 -12t-21.5 -30v-2q0 -5 3.5 -8.5t8.5 -3.5t8 3l10 9q11 9 30 9t30 -9zM296 96q0 26 -14 45t-34 19t-34 -19
t-14 -45t14 -45t34 -19t34 19t14 45zM404 226q-1 9 -7 17t-14.5 13.5t-18.5 8.5t-20 3q-20 0 -38.5 -12t-21.5 -30v-2q0 -5 3.5 -8.5t8.5 -3.5t8 3l10 9q11 9 30 9t31 -9l9 -9q4 -3 8 -3q3 0 6 2q6 3 6 10v2zM344 -37l2 1zM128 -25l3 -2zM133 -28l3 -1zM126 -24l-1 0.5
l-1 0.5l1 -0.5zM140 -31l2 -1q-1 0 -2 1zM372 -23l-2 -1l1 0.5zM145 -33l2 -2zM152 -37l-2 1z" />
    <glyph glyph-name="sad-tear-secondary" unicode="&#x10f5b4;" 
d="M248 440q103 0 175.5 -72.5t72.5 -175.5t-72.5 -175.5t-175.5 -72.5t-175.5 72.5t-72.5 175.5t72.5 175.5t175.5 72.5zM328 272q-13 0 -22.5 -9.5t-9.5 -22.5t9.5 -22.5t22.5 -9.5t22.5 9.5t9.5 22.5t-9.5 22.5t-22.5 9.5zM152 32q20 0 34 14t14 33q0 23 -42 78q0 1 -1 1
q-2 2 -5 2q-4 0 -6 -3q-42 -55 -42 -78q0 -19 14 -33t34 -14zM168 208q13 0 22.5 9.5t9.5 22.5t-9.5 22.5t-22.5 9.5t-22.5 -9.5t-9.5 -22.5t9.5 -22.5t22.5 -9.5zM338 54q6 -8 15.5 -6t12 10t-2.5 16q-19 22 -52.5 38t-62.5 16q-16 0 -16 -16t16 -16q11 0 24 -3.5t25 -9
t23 -13.5t18 -16z" />
    <glyph glyph-name="smile-beam-secondary" unicode="&#x10f5b8;" 
d="M245.5 440q102.5 1 176 -71t74.5 -174q1 -68 -32 -125.5t-89.5 -91t-124 -34.5t-125 32t-91 89.5t-34.5 123.5q-1 103 71 176.5t174.5 74.5zM112 225q-1 -7 5.5 -8.5t9.5 3.5l10 17q12 22 31 22t32 -22l9 -17q3 -5 9.5 -3.5t5.5 8.5q-2 30 -19.5 50.5t-36.5 20.5
t-36.5 -20.5t-19.5 -50.5zM364 103q10 12 -2.5 22t-22.5 -2q-15 -18 -41.5 -30.5t-49.5 -12.5t-49 12t-40 29q-11 12 -23 2t-2 -22q19 -22 52 -37.5t62 -15.5t63 16t53 39zM369 220q3 -5 9.5 -3.5t5.5 8.5q-2 30 -19.5 50.5t-36.5 20.5t-36.5 -20.5t-19.5 -50.5q0 -7 6 -8.5
t9 3.5l10 17q12 22 31 22t32 -22z" />
    <glyph glyph-name="star-half-alt-secondary" unicode="&#x10f5c0;" horiz-adv-x="536" 
d="M526 222l-106 -103l25 -146q3 -15 -7 -26t-24 -11q-8 0 -15 4l-131 68v55l22 -12l102 -54l-19 114l-4 25l18 17l82 81l-114 16l-25 4l-11 23l-51 103v68q8 0 16.5 -5t12.5 -13l65 -132l147 -22q19 -2 25.5 -21t-8.5 -33z" />
    <glyph glyph-name="surprise-secondary" unicode="&#x10f5c2;" 
d="M248 440q103 0 175.5 -72.5t72.5 -175.5t-72.5 -175.5t-175.5 -72.5t-175.5 72.5t-72.5 175.5t72.5 175.5t175.5 72.5zM136 240q0 -13 9.5 -22.5t22.5 -9.5t22.5 9.5t9.5 22.5t-9.5 22.5t-22.5 9.5t-22.5 -9.5t-9.5 -22.5zM248 32q26 0 45 19t19 45t-19 45t-45 19
t-45 -19t-19 -45t19 -45t45 -19zM328 208q13 0 22.5 9.5t9.5 22.5t-9.5 22.5t-22.5 9.5t-22.5 -9.5t-9.5 -22.5t9.5 -22.5t22.5 -9.5z" />
    <glyph glyph-name="swatchbook-secondary" unicode="&#x10f5c3;" horiz-adv-x="512" 
d="M64 192v64h64v-64h-64zM435 280q9 -9 9 -22.5t-9 -22.5l-211 -211v271l75 76h1q9 9 22 9t22 -9zM64 320v64h64v-64h-64zM480 128q13 0 22.5 -9.5t9.5 -22.5v-128q0 -13 -9.5 -22.5t-22.5 -9.5h-300q1 1 3.5 2.5t3.5 2.5l186 187h107z" />
    <glyph glyph-name="tired-secondary" unicode="&#x10f5c8;" 
d="M248 440q103 0 175.5 -72.5t72.5 -175.5t-72.5 -175.5t-175.5 -72.5t-175.5 72.5t-72.5 175.5t72.5 175.5t175.5 72.5zM119 200q-7 -8 0 -15.5t15 -2.5l80 48q6 3 6 10t-6 10l-80 48q-8 5 -15 -2.5t0 -15.5l33 -40zM354 33q7 -3 12.5 3.5t4.5 16.5q-5 45 -43.5 76
t-79.5 31t-79.5 -31t-43.5 -76q-1 -6 1.5 -11.5t7 -8t8.5 -0.5q41 17 106 17t106 -17zM362 182q8 -5 15 2.5t0 15.5l-33 40l33 40q3 4 3 8.5t-3 7.5t-7 4t-8 -2l-80 -48q-6 -3 -6 -10t6 -10z" />
    <glyph glyph-name="wine-glass-alt-secondary" unicode="&#x10f5ce;" horiz-adv-x="288" 
d="M64 250l7 70h146l7 -70v-8q0 -26 -16 -48q-4 -6 -12 -12.5t-17.5 -11.5t-16.5 -6q-9 -2 -18 -2t-17 2q-8 1 -17.5 6t-17 11.5t-12.5 12.5q-16 22 -16 48v8z" />
    <glyph glyph-name="car-alt-secondary" unicode="&#x10f5de;" horiz-adv-x="480" 
d="M176 320h128q13 0 26 -9t18 -21l20 -50h-256l20 50q3 8 10 15t16.5 11t17.5 4zM416 64q12 0 26 6t22 15v-5v-48q0 -13 -9.5 -22.5t-22.5 -9.5h-32q-13 0 -22.5 9.5t-9.5 22.5v32h48zM64 64h48v-32q0 -13 -9.5 -22.5t-22.5 -9.5h-32q-13 0 -22.5 9.5t-9.5 22.5v48v5
q8 -9 22 -15t26 -6z" />
    <glyph glyph-name="car-wash-secondary" unicode="&#x10f5e6;" horiz-adv-x="464" 
d="M349 363q0 10 11 31.5t21 37.5l11 16q43 -62 43 -85q0 -18 -12.5 -30.5t-30.5 -12.5t-30.5 12.5t-12.5 30.5zM400 0q23 0 40 14v-46q0 -13 -9.5 -22.5t-22.5 -9.5h-32q-13 0 -22.5 9.5t-9.5 22.5v32h56zM232 320q-18 0 -30.5 12.5t-12.5 30.5q0 10 11 31.5t21 37.5l11 16
q43 -62 43 -85q0 -18 -12.5 -30.5t-30.5 -12.5zM340 194l14 -34h-244l14 34q3 8 10 15t16.5 11t17.5 4h128q13 0 26 -9t18 -21zM72 320q-18 0 -30.5 12.5t-12.5 30.5q0 10 11 31.5t21 37.5l11 16q43 -62 43 -85q0 -18 -12.5 -30.5t-30.5 -12.5zM64 0h56v-32
q0 -13 -9.5 -22.5t-22.5 -9.5h-32q-13 0 -22.5 9.5t-9.5 22.5v46q17 -14 40 -14z" />
    <glyph glyph-name="do-not-enter-secondary" unicode="&#x10f5ec;" 
d="M56 160v64q0 7 4.5 11.5t11.5 4.5h352q7 0 11.5 -4.5t4.5 -11.5v-64q0 -7 -4.5 -11.5t-11.5 -4.5h-352q-7 0 -11.5 4.5t-4.5 11.5z" />
    <glyph glyph-name="location-circle-secondary" unicode="&#x10f602;" 
d="M248 440q103 0 175.5 -72.5t72.5 -175.5t-72.5 -175.5t-175.5 -72.5t-175.5 72.5t-72.5 175.5t72.5 175.5t175.5 72.5zM358 270q6 15 -5.5 26.5t-26.5 5.5l-208 -96q-17 -8 -13 -27t23 -19h88v-88q0 -19 19 -23.5t27 13.5z" />
    <glyph glyph-name="parking-circle-secondary" unicode="&#x10f615;" 
d="M280 240q7 0 11.5 -4.5t4.5 -11.5t-4.5 -11.5t-11.5 -4.5h-48v32h48zM248 440q103 0 175.5 -72.5t72.5 -175.5t-72.5 -175.5t-175.5 -72.5t-175.5 72.5t-72.5 175.5t72.5 175.5t175.5 72.5zM280 144q33 0 56.5 23.5t23.5 56.5t-23.5 56.5t-56.5 23.5h-96q-7 0 -11.5 -4.5
t-4.5 -11.5v-192q0 -7 4.5 -11.5t11.5 -4.5h32q7 0 11.5 4.5t4.5 11.5v48h48z" />
    <glyph glyph-name="parking-circle-slash-secondary" unicode="&#x10f616;" 
d="M168 96v117l90 -69h-26v-48q0 -7 -4.5 -11.5t-11.5 -4.5h-32q-7 0 -11.5 4.5t-4.5 11.5zM360 224q0 -10 -3.5 -21t-9.5 -21t-12 -16l-55 42q7 0 11.5 4.5t4.5 11.5t-4.5 11.5t-11.5 4.5h-42l-69 54q4 10 15 10h96q33 0 56.5 -23.5t23.5 -56.5z" />
    <glyph glyph-name="steering-wheel-secondary" unicode="&#x10f622;" 
d="M432 192q0 -16 -3 -32h-101l-48 -64v-85q-16 -3 -32 -3t-32 3v85l-48 64h-101q-3 16 -3 32t3 32h94q7 13 23.5 22.5t31.5 9.5h64q15 0 31.5 -9.5t23.5 -22.5h94q3 -16 3 -32z" />
    <glyph glyph-name="bullseye-arrow-secondary" unicode="&#x10f648;" 
d="M248 128q20 0 38 13.5t23 32.5l55 55l7 -2q5 -19 5 -35q0 -53 -37.5 -90.5t-90.5 -37.5t-90.5 37.5t-37.5 90.5t37.5 90.5t90.5 37.5q16 0 35 -5l2 -7l-55 -55q-20 -6 -33 -23t-13 -38q0 -26 19 -45t45 -19zM484 267q12 -37 12 -75q0 -103 -72.5 -175.5t-175.5 -72.5
t-175.5 72.5t-72.5 175.5t72.5 175.5t175.5 72.5q38 0 75 -12l-36 -35q-8 -8 -11 -19q-15 2 -29.5 2t-28.5 -2q-76 -12 -121.5 -74t-33.5 -138t74 -121.5t138 -33.5t121.5 74t33.5 138q11 4 19 12z" />
    <glyph glyph-name="bullseye-pointer-secondary" unicode="&#x10f649;" 
d="M312 192q0 27 -18.5 45.5t-45.5 18.5q-7 0 -15 -2.5t-15 -6t-13.5 -9t-9.5 -11.5l-74 -21q6 49 42 81.5t85 32.5q53 0 90.5 -37.5t37.5 -90.5q0 -49 -32.5 -85t-81.5 -42l21 74q12 7 20.5 23t8.5 30zM248 440q103 0 175.5 -72.5t72.5 -175.5t-72.5 -175.5t-175.5 -72.5
q-12 0 -25 1q7 8 10 18l13 45h1h1q76 0 130 54t54 130t-54 130t-130 54t-130 -54t-54 -130v-1v-1l-45 -13q-10 -3 -18 -10q-1 13 -1 25q0 103 72.5 175.5t175.5 72.5z" />
    <glyph glyph-name="peace-secondary" unicode="&#x10f67c;" 
d="M410 104q-13 -23 -32 -42l-8 -8l-90 71v-114q-16 -3 -32 -3t-32 3v114l-90 -71l-8 8q-19 19 -32 42l130 103v166q16 3 32 3t32 -3v-166z" />
    <glyph glyph-name="star-of-david-secondary" unicode="&#x10f69a;" horiz-adv-x="464" 
d="M176 104h-65l-20 33l-29 49l-57 95q-11 19 0 37t32 18h107l-33 -56h-40l61 -102zM336 185l5 7l32 -55l-20 -33l-33 -56l-56 -94q-5 -7 -14 -12.5t-18 -5.5t-18 5.5t-14 12.5l-56 94h65l23 -38l23 38l33 56zM427 336q21 0 32 -18t0 -37l-53 -89l-33 55l20 33h-217l33 56
h218z" />
    <glyph glyph-name="wifi-1-secondary" unicode="&#x10f6aa;" horiz-adv-x="640" 
d="M635 293q11 -12 0 -23l-34 -34q-11 -11 -23 0q-109 100 -258 100t-259 -100q-11 -11 -22 0l-34 34h-1v1q-10 11 1 22q87 81 201 109.5t228 0t201 -109.5zM523 180q0 -1 1 -1q10 -11 -1 -23l-34 -34q-11 -10 -22 0q-63 54 -147 54t-147 -54q-11 -10 -22 0l-34 34l-1 1
q-10 12 1 23q87 76 203 76t203 -76z" />
    <glyph glyph-name="wifi-2-secondary" unicode="&#x10f6ab;" horiz-adv-x="640" 
d="M635 270l-34 -34q-11 -11 -22 0q-110 100 -259 100t-258 -100q-12 -11 -23 0l-34 34l-1 1q-10 11 1 22q87 81 201 109.5t228 0t201 -109.5v0q12 -12 0 -23z" />
    <glyph glyph-name="yin-yang-secondary" unicode="&#x10f6ad;" 
d="M248 440q51 0 87.5 -36.5t36.5 -87.5t-36.5 -87.5t-87.5 -36.5t-87.5 -36.5t-36.5 -87.5t36.5 -87.5t87.5 -36.5q-103 0 -175.5 72.5t-72.5 175.5t72.5 175.5t175.5 72.5zM248 288q13 0 22.5 9.5t9.5 22.5t-9.5 22.5t-22.5 9.5t-22.5 -9.5t-9.5 -22.5t9.5 -22.5
t22.5 -9.5zM248 96q13 0 22.5 -9.5t9.5 -22.5t-9.5 -22.5t-22.5 -9.5t-22.5 9.5t-9.5 22.5t9.5 22.5t22.5 9.5z" />
    <glyph glyph-name="globe-europe-secondary" unicode="&#x10f7a2;" 
d="M488 128q-6 -22 -20 -49t-28 -44v20q0 27 -21 46l-18 17q-9 10 -22 10h-19l-43 37q-12 11 -29 11h-32q-12 0 -23 -7l-43 -26q-9 -5 -15.5 -16.5t-6.5 -22.5v-24q0 -22 18 -36l22 -17q16 -11 36 -11h20q7 0 11.5 -5t4.5 -11v-54q-16 -2 -32 -2q-103 0 -175.5 72.5
t-72.5 175.5t72.5 175.5t175.5 72.5q36 0 70 -10l-83 -60q-3 -2 -3 -6v-20q0 -8 8 -8h16q8 0 8 8v8l16 16h21q4 0 7.5 -3.5t3.5 -8t-3 -8.5l-27 -26q-2 -2 -4 -3l-40 -13q-6 -2 -6 -8v0q0 -10 -7 -18l-20 -20q-5 -4 -5 -11v-25q0 -7 4.5 -11.5t11.5 -4.5h22q10 0 14 8l10 19
q2 5 7 5h3q8 0 8 -8t8 -8h16q8 0 8 8v2q0 6 6 7l31 11q11 4 11 15v5q0 6 4.5 11t11.5 5h37q4 0 7.5 -3.5t3.5 -8.5v-9q0 -2 -1 -4.5t-2.5 -4t-3.5 -2t-4 -0.5h-32q-5 0 -8 -4l-10 -9q-3 -3 -3 -8q0 -3 1.5 -5.5t4 -4t5.5 -1.5h16q5 0 8 -4l10 -9q3 -3 3 -8v-9l-12 -12
q-4 -4 -4 -9t4 -8l32 -33q4 -4 11 -4h49zM187 291l10 9q3 4 3 8v16q0 5 -3.5 8.5t-8 3.5t-7.5 -4l-26 -25q-3 -3 -3 -8q0 -3 1.5 -5.5t4 -4t5.5 -1.5h16q5 0 8 3z" />
    <glyph glyph-name="grip-lines-vertical-secondary" unicode="&#x10f7a5;" horiz-adv-x="256" 
d="M224 432v-480q0 -7 -4.5 -11.5t-11.5 -4.5h-32q-7 0 -11.5 4.5t-4.5 11.5v480q0 7 4.5 11.5t11.5 4.5h32q7 0 11.5 -4.5t4.5 -11.5z" />
    <glyph glyph-name="radiation-secondary" unicode="&#x10f7b9;" 
d="M296 192q0 -20 -14 -34t-34 -14t-34 14t-14 34t14 34t34 14t34 -14t14 -34z" />
    <glyph glyph-name="radiation-alt-secondary" unicode="&#x10f7ba;" 
d="M248 160q-13 0 -22.5 9.5t-9.5 22.5t9.5 22.5t22.5 9.5t22.5 -9.5t9.5 -22.5t-9.5 -22.5t-22.5 -9.5zM248 -56q-103 0 -175.5 72.5t-72.5 175.5t72.5 175.5t175.5 72.5t175.5 -72.5t72.5 -175.5t-72.5 -175.5t-175.5 -72.5zM248 376q-76 0 -130 -54t-54 -130t54 -130
t130 -54t130 54t54 130t-54 130t-130 54z" />
    <glyph glyph-name="flower-secondary" unicode="&#x10f7ff;" horiz-adv-x="512" 
d="M436 192q44 -39 44 -96q0 -53 -37.5 -90.5t-90.5 -37.5q-57 0 -96 44q-39 -44 -96 -44q-53 0 -90.5 37.5t-37.5 90.5q0 57 44 96q-44 39 -44 96q0 53 37.5 90.5t90.5 37.5q57 0 96 -44q39 44 96 44q53 0 90.5 -37.5t37.5 -90.5q0 -57 -44 -96zM335 113q6 5 11 12.5
t9 15.5t7 17t4.5 17.5t1.5 16.5q0 46 -33 79t-79 33t-79 -33t-33 -79t33 -79t79 -33q19 0 42.5 9.5t36.5 23.5z" />
    <glyph glyph-name="french-fries-secondary" unicode="&#x10f803;" horiz-adv-x="512" 
d="M170 448h3q13 0 15 -13l4 -20v-226q-18 9 -27 21l-37 197v3q0 8 6 13l29 22q3 2 7 3zM279 430q9 -4 9 -14v-237q-16 -3 -32 -3t-32 3v253q0 4 2 8t6 6t8 2t7 -2zM85 367l19 -6l20 -107q-7 2 -10 2h-33l-17 93v3q0 7 4.5 11.5t11.5 4.5q2 0 5 -1zM371 416q5 -1 9 -5.5
t4 -10.5v-3l-30 -172q-1 -1 -1.5 -2.5t-0.5 -2.5q-4 -17 -32 -31v208q3 6 9 8l34 10q3 1 5 1h3zM435 368q5 -1 9 -5.5t4 -10.5v-3l-17 -93h-33q-1 0 -3.5 -0.5t-3.5 -0.5l19 107l17 5q3 1 5 1h3z" />
    <glyph glyph-name="hand-middle-finger-secondary" unicode="&#x10f806;" horiz-adv-x="512" 
 />
    <glyph glyph-name="ice-cream-secondary" unicode="&#x10f810;" horiz-adv-x="448" 
d="M368 192h-288h-2q-20 0 -34 14t-14 34q0 19 13.5 33t32.5 15h4h1q-1 8 -1 16q0 60 42 102t102 42t102 -42t42 -102q0 -8 -1 -16h1h2q20 0 34 -14t14 -34q0 -19 -13.5 -33t-32.5 -15h-4z" />
    <glyph glyph-name="popcorn-secondary" unicode="&#x10f819;" horiz-adv-x="512" 
d="M101 330q-4 9 -4 18q0 11 5 19q3 6 8 10.5t11 7t13 3.5t13 0q1 12 8.5 22.5t20.5 14.5q7 2 14 2q14 0 25 -8q3 8 11 16t16 11q17 5 33 -2.5t21 -23.5l1 -1q11 8 25 8q7 0 14 -2q8 -3 14.5 -8.5t10 -13t4.5 -15.5q13 2 25.5 -3.5t19.5 -17.5q5 -8 5 -19q0 -9 -4 -18
q5 -1 12 -3.5t12.5 -7.5t8.5 -10q5 -9 4 -21h-384q-1 12 4 21q11 19 33 21z" />
    <glyph glyph-name="tree-palm-secondary" unicode="&#x10f82b;" horiz-adv-x="640" 
d="M380 -37q-2 -12 -11 -19.5t-21 -7.5h-55q-13 0 -22.5 9.5t-9.5 22.5q0 4 1 8q38 151 26 272l8 8h57q43 -165 27 -293z" />
    <glyph glyph-name="send-backward-secondary" unicode="&#x10f87f;" horiz-adv-x="514" 
d="M464 288q20 0 34 -14t14 -34v-256q0 -20 -14 -34t-34 -14h-256q-20 0 -34 14t-14 34v256q0 20 14 34t34 14h256zM448 0v224h-224v-224h224z" />
    <glyph glyph-name="skull-cow-secondary" unicode="&#x10f8de;" horiz-adv-x="640" 
d="M60 335q10 -15 36 -15h73q-9 -15 -9 -32v-64h-32q-53 0 -90.5 37.5t-37.5 90.5q0 55 37 91q4 5 11 5t11.5 -4.5t4.5 -11.5q0 -3 -1 -6q-4 -10 -7.5 -25t-3.5 -35t8 -31zM603 443q37 -36 37 -91q0 -53 -37.5 -90.5t-90.5 -37.5h-32v64q0 17 -9 32h73q26 0 36 15q4 6 6 14
t2 17t-1 17.5t-3 17t-3.5 15t-3.5 10.5q-1 3 -1 6q0 7 4.5 11.5t11.5 4.5t11 -5z" />
    <glyph glyph-name="wagon-covered-secondary" unicode="&#x10f8ee;" horiz-adv-x="640" 
d="M224 224h-153l-69 174q-7 20 5.5 36.5t32.5 13.5l125 -20q13 -2 16.5 -2.5t13.5 -2.5t13 -5t8 -7.5t6.5 -11t1.5 -15.5v-160zM384 392v-168h-128v168q0 17 11.5 28.5t28.5 11.5h48q17 0 28.5 -11.5t11.5 -28.5zM600 448q20 3 32.5 -13.5t5.5 -36.5l-69 -174h-153v160
q0 11 3.5 18.5t7 11.5t14 7t15 4t19.5 3zM176 160q19 0 42.5 -9.5t37 -23t23 -37t9.5 -42.5q0 -46 -33 -79t-79 -33t-79 33t-33 79q0 30 15 56t41 41t56 15zM160 -14v46h-46q4 -15 17.5 -28.5t28.5 -17.5zM160 64v46q-15 -4 -28.5 -17.5t-17.5 -28.5h46zM221.5 2.5
q12.5 12.5 16.5 29.5h-46v-46q17 4 29.5 16.5zM192 64h46q-4 15 -17.5 28.5t-28.5 17.5v-46zM464 160q19 0 42.5 -9.5t37 -23t23 -37t9.5 -42.5q0 -46 -33 -79t-79 -33t-79 33t-33 79q0 30 15 56t41 41t56 15zM448 -14v46h-46q4 -15 17.5 -28.5t28.5 -17.5zM448 64v46
q-10 -3 -19.5 -10t-16.5 -16.5t-10 -19.5h46zM509.5 2.5q12.5 12.5 16.5 29.5h-46v-46q17 4 29.5 16.5zM480 64h46q-4 15 -17.5 28.5t-28.5 17.5v-46z" />
  </font>
</defs>
</svg>
